<svg width="34" height="24" viewBox="0 0 34 24" fill="none" xmlns="http://www.w3.org/2000/svg">
<path fill-rule="evenodd" clip-rule="evenodd" d="M33.6436 2.04829L23.4269 12.1454C22.743 12.821 21.8166 13.2003 20.8514 13.2003H13.148C12.1828 13.2003 11.2564 12.821 10.5725 12.1454L0.355883 2.04829C0.123864 2.52829 0 3.05759 0 3.59999V20.4C0 21.3552 0.383797 22.2707 1.06739 22.9452C1.74988 23.6207 2.67635 24 3.64286 24H30.3571C31.3237 24 32.2501 23.6207 32.9326 22.9452C33.6162 22.2707 34 21.3551 34 20.4V3.59999C34 3.05758 33.8756 2.52829 33.6436 2.04829ZM2.07212 0.351696L12.2895 10.4482C12.5177 10.674 12.8261 10.7999 13.1479 10.7999H20.8513C21.173 10.7999 21.4815 10.674 21.7097 10.4482L31.927 0.351696C31.4413 0.122407 30.9057 0 30.3569 0H3.64257C3.0937 0 2.55783 0.122414 2.07212 0.351696Z" fill="#F8BE17"/>
</svg>
