<svg width="34" height="36" viewBox="0 0 34 36" fill="none" xmlns="http://www.w3.org/2000/svg">
<path fill-rule="evenodd" clip-rule="evenodd" d="M21.6523 29.1866C28.7795 29.5997 34 30.9393 34 32.5274C34 34.4454 26.3886 36 17 36C7.61141 35.9997 0 34.4449 0 32.5274C0 30.9393 5.22058 29.5997 12.3477 29.1866C13.408 30.4859 14.5007 31.796 15.4771 33.1567C15.8281 33.6461 16.3903 33.9325 16.9998 33.9325C17.6095 33.9325 18.1715 33.6461 18.5224 33.1567C19.4992 31.7961 20.592 30.4859 21.6522 29.1866H21.6523ZM17.0011 0C10.181 0 4.6527 5.42636 4.6527 12.1244C4.6527 18.9893 13.0822 27.2774 16.6958 32.314C16.7679 32.4141 16.8753 32.4691 17.0001 32.4691C17.125 32.4691 17.2327 32.4144 17.3044 32.314C20.9179 27.2782 29.3476 18.9899 29.3476 12.1244C29.3476 5.42842 23.8199 0 17.0007 0H17.0011ZM17.0011 5.58425C20.6764 5.58425 23.6558 8.50973 23.6558 12.1191C23.6558 15.7281 20.6767 18.6539 17.0011 18.6539C13.3258 18.6539 10.3463 15.7284 10.3463 12.1191C10.3463 8.51002 13.326 5.58425 17.0011 5.58425Z" fill="#F8BE17"/>
</svg>
