<svg width="34" height="35" viewBox="0 0 34 35" fill="none" xmlns="http://www.w3.org/2000/svg">
<path d="M33.9998 25.0496V31.3458C34.0016 32.3565 33.5632 33.3168 32.8016 33.9715C32.0401 34.6262 31.0319 34.9091 30.0455 34.7451C21.8191 33.3886 14.7028 29.8859 9.46907 24.616C6.8163 21.9457 4.65208 18.8215 3.07723 15.3884C1.41513 11.7214 0.380417 7.79542 0.0173344 3.7786C-0.0796839 2.81145 0.233629 1.84779 0.879784 1.12732C1.52593 0.407118 2.44388 -0.00239442 3.40555 0.000647158H9.63557C10.1389 -0.0039031 10.6308 0.153082 11.0403 0.44935C11.4497 0.745619 11.7555 1.16574 11.9135 1.64883L13.8362 7.35735C14.0922 8.08739 13.9797 8.89761 13.5349 9.52832L11.603 12.3389L11.6032 12.3386C11.4337 12.5704 11.4082 12.8791 11.5372 13.1359C13.5266 17.4245 16.8623 20.9281 21.0252 23.1019C21.2863 23.2508 21.6093 23.2303 21.8499 23.0501L24.5675 21.1195C25.1928 20.6647 25.9987 20.5477 26.7254 20.8066L32.3668 22.7462V22.746C32.8454 22.9052 33.2617 23.2144 33.5553 23.6285C33.8489 24.0426 34.0046 24.5403 33.9999 25.05L33.9998 25.0496ZM17.9626 1.63074C21.7866 1.63503 25.4528 3.17275 28.1567 5.90641C30.8607 8.64007 32.3816 12.3465 32.3858 16.2122C32.3988 16.653 32.7561 17.0036 33.1925 17.0036C33.6289 17.0036 33.9859 16.653 33.9989 16.2122C33.9989 11.9125 32.3096 7.78895 29.3022 4.74867C26.2946 1.70839 22.216 0.000258857 17.9629 0C17.5268 0.0131448 17.18 0.374385 17.18 0.81553C17.18 1.25665 17.5269 1.61766 17.9629 1.6308L17.9626 1.63074ZM17.9626 5.06085C20.8872 5.06389 23.691 6.23963 25.7588 8.33022C27.8267 10.4206 28.9897 13.2551 28.9927 16.2118C28.9862 16.4322 29.0682 16.6461 29.2203 16.8043C29.3723 16.9626 29.5811 17.0518 29.7994 17.0518C30.0174 17.0518 30.2265 16.9626 30.3783 16.8043C30.5303 16.6461 30.6123 16.4322 30.6058 16.2118C30.6018 12.8231 29.2685 9.57403 26.8983 7.17831C24.5281 4.78239 21.3144 3.43445 17.9627 3.43044C17.5266 3.44359 17.1798 3.80483 17.1798 4.24597C17.1798 4.68709 17.5266 5.04811 17.9627 5.06124L17.9626 5.06085ZM17.9626 8.48923C19.9883 8.491 21.9306 9.30521 23.3629 10.7532C24.7955 12.2012 25.6014 14.1646 25.6034 16.2124C25.5969 16.4329 25.6792 16.6465 25.831 16.805C25.983 16.9632 26.1918 17.0524 26.4101 17.0524C26.6284 17.0524 26.8372 16.9632 26.9892 16.805C27.141 16.6465 27.2232 16.4329 27.2167 16.2124C27.2137 13.7326 26.238 11.355 24.5034 9.60121C22.7688 7.84739 20.4171 6.86147 17.9638 6.85868C17.5277 6.87183 17.1809 7.23281 17.1809 7.67395C17.1809 8.1151 17.5278 8.47628 17.9638 8.48948L17.9626 8.48923Z" fill="#F8BE17"/>
</svg>
