<svg xmlns="http://www.w3.org/2000/svg" width="532" height="449" viewBox="0 0 532 449" fill="none"><g clip-path="url(#clip0_193_1012)"><mask id="mask0_193_1012" style="mask-type:luminance" maskUnits="userSpaceOnUse" x="48" y="158" width="92" height="113"><path d="M49.5779 160.733C51.2987 162.816 52.7184 166.116 53.88 170.761C54.8366 174.521 55.3647 178.377 55.4545 182.255C55.3971 189.505 55.334 196.756 55.2652 204.007C55.0769 206.125 54.4933 208.188 53.5444 210.092C52.5723 212.327 51.0764 214.296 49.1822 215.835C51.0621 216.77 52.5669 218.315 53.4498 220.214C54.4032 221.913 54.9536 223.807 55.0587 225.751C55.0013 232.979 54.9383 240.204 54.8694 247.427C54.6992 251.51 54.1228 255.567 53.1486 259.537C51.9527 264.491 50.5244 268.339 48.7864 270.936C62.5528 266.776 76.4139 263.028 90.3696 259.691C88.6488 258.226 87.2722 255.406 86.1622 251.352C85.1976 247.908 84.6687 244.358 84.5877 240.784L84.7684 226.891C86.7645 226.54 88.7779 226.197 90.7912 225.863C95.0169 225.213 99.2961 224.975 103.568 225.151C108.67 225.228 112.43 225.794 114.676 226.865L115.106 198.162C112.818 199.79 109.023 201.325 103.921 202.867C99.7195 204.153 95.4289 205.13 91.0837 205.79L85.0609 206.57C85.1814 197.656 85.299 188.748 85.4137 179.846C92.4174 179.321 99.4325 178.832 106.459 178.381C110.409 178.191 114.369 178.386 118.281 178.963C122.721 179.615 125.982 180.523 128.227 181.74C132.105 173.701 135.98 165.816 139.851 158.085C109.732 158.736 79.6519 159.616 49.6124 160.725" fill="white"></path></mask><g mask="url(#mask0_193_1012)"><path d="M139.808 158.094H48.7256V270.936H139.808V158.094Z" fill="url(#paint0_linear_193_1012)"></path></g><mask id="mask1_193_1012" style="mask-type:luminance" maskUnits="userSpaceOnUse" x="14" y="144" width="151" height="156"><path d="M53.0973 259.537C54.0715 255.567 54.6479 251.51 54.8181 247.427C54.8755 240.205 54.9386 232.979 55.0074 225.751C54.9182 223.812 54.3855 221.918 53.4501 220.215C52.5585 218.309 51.0409 216.764 49.1481 215.835C51.0423 214.296 52.5383 212.327 53.5103 210.093C54.4592 208.189 55.0428 206.125 55.2311 204.007C55.2885 196.757 55.3516 189.506 55.4204 182.255C55.3307 178.377 54.8025 174.522 53.8459 170.761C52.7188 166.116 51.3163 162.816 49.5439 160.734C79.5719 159.591 109.652 158.711 139.783 158.094C135.911 165.825 132.036 173.71 128.159 181.749C125.913 180.532 122.652 179.624 118.213 178.972C114.3 178.395 110.341 178.2 106.391 178.389C99.3698 178.847 92.3546 179.335 85.3452 179.855C85.2248 188.757 85.1072 197.665 84.9924 206.579L91.0153 205.799C95.3612 205.143 99.6521 204.166 103.852 202.876C109.015 201.333 112.775 199.799 115.038 198.171C114.889 207.736 114.745 217.303 114.607 226.874C112.362 225.82 108.585 225.254 103.5 225.16C99.2276 224.983 94.9484 225.222 90.7227 225.871C88.718 226.206 86.7046 226.548 84.6999 226.9L84.5881 240.784C84.6634 244.358 85.1866 247.908 86.1454 251.352C87.2553 255.398 88.6319 258.209 90.3527 259.692C76.4085 263.034 62.5474 266.782 48.7695 270.936C50.4903 268.365 51.9358 264.491 53.1318 259.537M140.032 144.989H15.2741C22.0999 154.051 28.8885 162.662 35.6398 170.821C36.298 172.249 36.7888 173.747 37.1025 175.287C37.8099 178.073 38.2195 180.926 38.3242 183.798C38.2898 190.94 38.2497 198.082 38.2038 205.224C31.3837 210.224 24.5836 215.478 17.8036 220.986C24.5664 224.22 31.3234 227.283 38.0747 230.174C38.0288 237.339 37.9887 244.504 37.9543 251.669C37.8011 254.717 37.3662 257.744 36.6551 260.711C36.3208 262.348 35.8488 263.954 35.244 265.511C28.2633 276.219 21.3514 287.484 14.5083 299.306C25.791 294.78 37.1598 290.572 48.6146 286.681C62.3352 282.007 76.1733 277.793 90.129 274.039C101.756 270.891 113.443 268.065 125.19 265.563C118.187 259.974 111.197 254.209 104.222 248.267C103.62 247.164 103.163 245.989 102.863 244.77C102.406 243.045 102.058 241.293 101.822 239.525C102.661 239.532 103.498 239.604 104.326 239.739C113.343 243.793 122.394 247.684 131.463 251.481C131.6 242.447 131.741 233.416 131.884 224.389L132.246 200.879L135.799 202.67C138.621 196.808 141.443 191.026 144.266 185.323C148.137 177.49 152.009 169.796 155.881 162.242C158.864 156.42 161.841 150.672 164.812 144.998L140.032 144.989Z" fill="white"></path></mask><g mask="url(#mask1_193_1012)"><path d="M164.812 144.997H14.5081V299.305H164.812V144.997Z" fill="url(#paint1_linear_193_1012)"></path></g><mask id="mask2_193_1012" style="mask-type:luminance" maskUnits="userSpaceOnUse" x="144" y="156" width="105" height="87"><path d="M205.853 157.04C207.574 158.668 209.011 161.239 210.078 164.856C211.076 167.732 211.616 170.745 211.678 173.787L211.523 190.586C211.374 192.235 210.779 193.814 209.802 195.154C208.745 196.907 207.204 198.32 205.363 199.225C207.18 199.97 208.709 201.277 209.725 202.953C210.705 204.234 211.281 205.776 211.377 207.384V209.021C211.411 211.696 210.803 214.341 209.604 216.735C208.468 219.094 206.718 221.106 204.537 222.563C201.968 224.146 199.036 225.049 196.019 225.186C192.62 225.451 189.824 225.031 187.638 223.849C185.432 222.714 183.667 220.881 182.622 218.638C181.498 216.224 180.953 213.583 181.03 210.924V209.115C181.267 207.39 181.893 205.74 182.863 204.29C183.917 202.551 185.424 201.129 187.225 200.176C185.45 199.479 183.954 198.22 182.966 196.594C182.011 195.252 181.418 193.687 181.245 192.051C181.314 186.252 181.389 180.446 181.469 174.635C181.645 171.476 182.256 168.356 183.285 165.362C184.506 161.608 185.978 158.934 187.759 157.237C173.683 157.425 159.609 157.665 145.539 157.957C147.26 159.671 148.662 162.439 149.781 166.305C150.722 169.404 151.237 172.615 151.312 175.852C151.226 181.858 151.137 187.857 151.045 193.851C150.85 195.621 150.246 197.322 149.282 198.822C148.227 200.703 146.692 202.273 144.833 203.373C146.642 204.155 148.15 205.495 149.135 207.196C150.087 208.582 150.646 210.199 150.753 211.875C150.753 213.127 150.753 214.387 150.693 215.638C150.589 222.677 152.528 228.337 156.509 232.616C160.501 236.833 165.973 239.619 172.796 241.187C179.619 242.756 187.354 242.987 195.786 242.199C203.696 241.538 211.476 239.79 218.905 237.005C225.832 234.313 231.398 230.774 235.597 226.248C239.686 221.736 241.903 215.845 241.801 209.767C241.801 208.456 241.801 207.153 241.801 205.85C242.082 204.256 242.729 202.748 243.693 201.445C244.746 199.912 246.202 198.696 247.901 197.931C246.219 197.259 244.778 196.1 243.762 194.605C242.808 193.328 242.176 191.84 241.921 190.268C241.921 184.612 241.944 178.952 241.99 173.29C242.138 170.286 242.718 167.319 243.711 164.479C244.821 160.905 246.344 158.368 248.125 156.765C234.031 156.805 219.941 156.9 205.853 157.048" fill="white"></path></mask><g mask="url(#mask2_193_1012)"><path d="M248.116 156.757H144.833V242.996H248.116V156.757Z" fill="url(#paint2_linear_193_1012)"></path></g><mask id="mask3_193_1012" style="mask-type:luminance" maskUnits="userSpaceOnUse" x="111" y="145" width="172" height="111"><path d="M195.993 225.177C199.01 225.04 201.942 224.137 204.511 222.554C206.693 221.098 208.443 219.085 209.579 216.726C210.777 214.332 211.385 211.688 211.351 209.013V207.358C211.257 205.75 210.681 204.207 209.699 202.927C208.684 201.251 207.155 199.944 205.337 199.199C207.178 198.295 208.72 196.881 209.777 195.128C210.754 193.788 211.349 192.209 211.497 190.56L211.652 173.761C211.59 170.727 211.047 167.722 210.043 164.856C208.976 161.239 207.574 158.668 205.819 157.04C219.912 156.891 234.003 156.797 248.09 156.757C246.309 158.368 244.786 160.905 243.677 164.47C242.684 167.31 242.104 170.277 241.956 173.281C241.956 178.938 241.933 184.597 241.887 190.26C242.142 191.832 242.774 193.319 243.728 194.597C244.751 196.1 246.205 197.262 247.901 197.931C246.217 198.705 244.777 199.923 243.737 201.453C242.773 202.756 242.125 204.264 241.844 205.859C241.844 207.161 241.844 208.43 241.844 209.775C241.946 215.854 239.729 221.744 235.64 226.257C231.442 230.782 225.875 234.322 218.949 237.013C211.52 239.798 203.739 241.546 195.83 242.207C187.398 242.996 179.757 242.73 172.84 241.196C165.922 239.662 160.544 236.867 156.552 232.625C152.56 228.382 150.633 222.683 150.736 215.646C150.736 214.395 150.779 213.135 150.796 211.884C150.689 210.207 150.131 208.591 149.179 207.204C148.193 205.503 146.685 204.163 144.877 203.382C146.736 202.281 148.27 200.711 149.325 198.83C150.289 197.331 150.893 195.63 151.089 193.859C151.175 187.854 151.264 181.855 151.355 175.861C151.277 172.626 150.759 169.417 149.815 166.322C148.697 162.456 147.311 159.714 145.573 157.974C159.644 157.682 173.717 157.442 187.793 157.254C186.012 158.968 184.541 161.625 183.319 165.379C182.294 168.37 181.686 171.488 181.512 174.644C181.438 180.449 181.363 186.254 181.289 192.06C181.461 193.696 182.054 195.26 183.01 196.602C183.997 198.229 185.493 199.487 187.269 200.185C185.468 201.138 183.96 202.559 182.906 204.299C181.936 205.748 181.31 207.398 181.074 209.124V210.932C180.996 213.592 181.541 216.233 182.665 218.646C183.71 220.89 185.475 222.723 187.682 223.857C189.694 224.863 191.928 225.349 194.178 225.271C194.78 225.271 195.408 225.246 196.062 225.194M248.228 145.006H111.424C118.089 152.291 124.775 159.317 131.48 166.082C132.123 167.233 132.604 168.468 132.908 169.75C133.598 172.019 133.995 174.366 134.087 176.735C133.995 182.575 133.904 188.414 133.812 194.254C126.86 198.105 119.916 202.127 112.981 206.321C119.813 209.178 126.65 211.961 133.493 214.669C133.493 215.663 133.493 216.666 133.45 217.66C133.295 227.354 136.083 235.453 141.745 241.53C147.389 247.529 155.227 251.421 165.062 253.426H165.139C174.302 255.26 184.558 255.449 195.606 254.283C206.129 253.286 216.477 250.932 226.391 247.281C236.277 243.493 244.305 238.504 250.233 232.222L250.302 232.145L250.37 232.068C256.114 225.958 259.275 217.88 259.198 209.51V206.836C266.357 203.647 273.507 200.525 280.648 197.468C273.495 194.497 266.354 191.585 259.224 188.734V173.178C259.354 171.018 259.797 168.887 260.54 166.853C260.828 165.728 261.308 164.661 261.96 163.699C268.843 157.471 275.692 151.246 282.506 145.023L248.228 145.006Z" fill="white"></path></mask><g mask="url(#mask3_193_1012)"><path d="M282.566 144.998H111.312V255.517H282.566V144.998Z" fill="url(#paint3_linear_193_1012)"></path></g><mask id="mask4_193_1012" style="mask-type:luminance" maskUnits="userSpaceOnUse" x="254" y="156" width="105" height="89"><path d="M255.025 156.74C256.789 158.342 258.217 160.862 259.396 164.41C260.375 167.235 260.94 170.185 261.074 173.17C261.074 178.655 261.074 184.137 261.074 189.617C260.888 191.213 260.296 192.735 259.353 194.039C258.278 195.705 256.746 197.029 254.939 197.853C256.744 198.674 258.274 199.995 259.345 201.659C260.446 203.433 261.065 204.856 261.065 206.064V222.451C260.926 225.465 260.347 228.441 259.345 231.288C258.149 234.793 256.686 237.39 254.888 239.002C269.188 238.773 283.487 238.947 297.787 239.524C295.981 237.896 294.518 235.239 293.305 231.708C292.311 228.833 291.731 225.832 291.584 222.794C291.544 214.549 291.506 206.304 291.472 198.059C301.651 211.995 311.907 226.188 322.206 240.913C334.458 241.804 346.684 242.993 358.885 244.478C357.078 242.618 355.52 239.721 354.367 235.907C353.349 232.858 352.736 229.688 352.543 226.48C352.463 220.766 352.388 215.023 352.32 209.252C352.448 207.628 353.012 206.068 353.954 204.736C354.94 203.051 356.45 201.733 358.256 200.982C356.402 199.997 354.863 198.512 353.817 196.696C352.874 195.274 352.285 193.65 352.096 191.957C352.021 186.186 351.947 180.42 351.872 174.661C351.958 171.546 352.485 168.458 353.438 165.49C354.479 161.771 355.959 159.139 357.74 157.459C343.653 157.248 329.568 157.082 315.486 156.962C317.275 158.608 318.721 161.196 319.857 164.83C320.907 167.716 321.502 170.746 321.62 173.812L321.853 198.968C311.614 184.569 301.435 170.607 291.326 156.817C283.221 156.782 275.119 156.765 267.019 156.765H255.12" fill="white"></path></mask><g mask="url(#mask4_193_1012)"><path d="M358.823 156.731H254.844V244.444H358.823V156.731Z" fill="url(#paint4_linear_193_1012)"></path></g><mask id="mask5_193_1012" style="mask-type:luminance" maskUnits="userSpaceOnUse" x="218" y="144" width="177" height="119"><path d="M259.3 231.288C260.302 228.442 260.882 225.465 261.021 222.452V206.064C261.021 204.856 260.428 203.433 259.3 201.659C258.23 199.995 256.7 198.674 254.895 197.854C256.702 197.029 258.234 195.705 259.309 194.04C260.252 192.736 260.844 191.213 261.03 189.617C261.03 184.132 261.03 178.649 261.03 173.17C260.896 170.185 260.331 167.235 259.352 164.411C258.173 160.862 256.771 158.343 254.981 156.74C267.027 156.74 279.095 156.74 291.187 156.74C301.297 170.53 311.475 184.492 321.714 198.891L321.482 173.736C321.363 170.669 320.768 167.639 319.718 164.753C318.582 161.119 317.137 158.531 315.347 156.885C329.441 157.005 343.525 157.171 357.601 157.383C355.881 159.097 354.375 161.668 353.299 165.413C352.346 168.382 351.819 171.469 351.734 174.584C351.814 180.349 351.888 186.115 351.957 191.88C352.146 193.573 352.736 195.198 353.678 196.619C354.724 198.435 356.263 199.92 358.118 200.905C356.311 201.656 354.801 202.974 353.816 204.659C352.874 205.991 352.309 207.551 352.181 209.176C352.256 214.918 352.33 220.66 352.405 226.403C352.597 229.611 353.211 232.781 354.229 235.831C355.382 239.627 356.939 242.524 358.746 244.401C346.545 242.91 334.319 241.722 322.067 240.836C311.742 226.111 301.512 211.918 291.333 197.982C291.368 206.227 291.405 214.472 291.445 222.717C291.593 225.755 292.172 228.756 293.166 231.631C294.379 235.179 295.842 237.819 297.649 239.447C283.354 238.876 269.055 238.702 254.749 238.925C256.547 237.348 258.01 234.751 259.206 231.211M357.378 144.912H220.574C227.354 151.197 234.154 157.437 240.974 163.631C241.626 164.653 242.125 165.764 242.454 166.93C243.172 168.948 243.596 171.058 243.71 173.196C243.71 178.401 243.69 183.603 243.65 188.803C236.698 191.82 229.734 194.914 222.759 198.085C229.683 201.022 236.62 203.99 243.572 206.99C243.572 212.207 243.552 217.426 243.512 222.649C243.364 224.822 242.918 226.964 242.187 229.017C241.839 230.151 241.348 231.237 240.724 232.248C233.48 238.745 226.215 245.401 218.93 252.218C230.861 251.378 242.804 250.849 254.758 250.632C269.098 250.375 283.438 250.572 297.778 251.224C309.72 251.795 321.648 252.652 333.562 253.795C342.045 254.629 350.515 255.626 358.97 256.786C370.837 258.409 382.665 260.346 394.452 262.597C387.191 254.266 379.912 246.313 372.633 238.599C372.02 237.521 371.548 236.369 371.23 235.171C370.467 232.896 369.99 230.535 369.811 228.143C369.73 222.543 369.65 216.952 369.57 211.37C376.453 208.627 383.319 205.847 390.168 203.03C383.216 199.168 376.255 195.454 369.286 191.888C369.205 186.317 369.125 180.749 369.045 175.184C369.138 172.889 369.543 170.617 370.249 168.43V168.387C370.522 167.205 370.984 166.073 371.617 165.036C378.374 158.523 385.12 151.809 391.854 144.895L357.378 144.912Z" fill="white"></path></mask><g mask="url(#mask5_193_1012)"><path d="M394.47 144.998H218.983V262.691H394.47V144.998Z" fill="url(#paint5_linear_193_1012)"></path></g><mask id="mask6_193_1012" style="mask-type:luminance" maskUnits="userSpaceOnUse" x="366" y="157" width="103" height="110"><path d="M418.063 206.416C413.032 205.844 407.99 205.296 402.937 204.77L402.498 176.889C407.551 177.164 412.596 177.449 417.632 177.746C423.087 178.078 426.968 179.549 429.274 182.16C431.571 184.783 432.801 188.588 432.87 193.465C432.922 202.293 428.998 206.596 421.126 206.596C420.102 206.59 419.079 206.524 418.063 206.398M370.551 165.884C371.585 168.96 372.198 172.16 372.375 175.398L372.633 193.148C372.501 194.806 371.944 196.402 371.016 197.785C370.021 199.457 368.513 200.767 366.714 201.522C368.573 202.591 370.112 204.135 371.171 205.996C372.298 208.001 372.891 209.604 372.891 210.898L373.15 228.588C373.075 231.748 372.554 234.881 371.601 237.896C370.465 241.513 369.071 244.084 367.299 245.507C381.496 247.392 395.632 249.678 409.708 252.363C407.918 250.255 406.439 247.058 405.2 242.893C404.174 239.55 403.556 236.097 403.358 232.608C403.318 229.522 403.269 226.431 403.212 223.334C407.118 223.866 411.016 224.417 414.905 224.988C420.067 225.734 423.75 228.117 425.892 232.059C428.567 237.126 429.945 242.773 429.902 248.498C429.953 252.38 429.239 254.875 427.759 256.04L433.782 257.377V257.309C445.484 259.966 457.131 262.911 468.723 266.145C466.838 263.399 465.175 260.507 463.75 257.497C461.93 253.939 460.313 250.283 458.906 246.544C456.583 238.232 452.719 230.427 447.514 223.531C457.839 219.169 463.001 210.075 462.855 196.662C462.761 188.246 460.678 181.089 456.591 175.492C452.4 169.834 446.675 165.484 440.089 162.953C432.828 160.199 425.135 158.749 417.366 158.668C400.284 158.228 383.19 157.865 366.086 157.579C367.875 159.294 369.347 162.062 370.577 165.927" fill="white"></path></mask><g mask="url(#mask6_193_1012)"><path d="M468.722 157.562H366.05V266.196H468.722V157.562Z" fill="url(#paint6_linear_193_1012)"></path></g><mask id="mask7_193_1012" style="mask-type:luminance" maskUnits="userSpaceOnUse" x="331" y="144" width="174" height="150"><path d="M402.937 204.787C407.991 205.307 413.033 205.856 418.063 206.433C427.975 207.607 432.931 203.407 432.871 193.499C432.802 188.623 431.572 184.817 429.274 182.195C426.977 179.572 423.088 178.115 417.633 177.781C412.591 177.472 407.546 177.186 402.499 176.924L402.937 204.804M367.308 245.558C369.072 244.135 370.466 241.564 371.61 237.947C372.563 234.933 373.084 231.799 373.159 228.639L372.901 210.949C372.901 209.655 372.273 208.053 371.18 206.047C370.121 204.187 368.582 202.642 366.723 201.573C368.522 200.819 370.03 199.509 371.025 197.836C371.953 196.454 372.51 194.857 372.643 193.199L372.385 175.449C372.203 172.212 371.59 169.012 370.56 165.936C369.33 162.07 367.859 159.336 366.069 157.588C383.174 157.879 400.267 158.242 417.349 158.676C425.118 158.757 432.811 160.208 440.072 162.962C446.659 165.492 452.384 169.842 456.575 175.501C460.662 181.097 462.744 188.254 462.839 196.671C462.985 210.084 457.848 219.177 447.498 223.54C452.72 230.446 456.595 238.266 458.924 246.595C460.331 250.334 461.948 253.991 463.768 257.549C465.192 260.558 466.855 263.45 468.741 266.196C457.154 262.968 445.507 260.023 433.8 257.36V257.429L427.777 256.092C429.257 254.926 429.971 252.432 429.92 248.549C429.962 242.824 428.585 237.178 425.91 232.111C423.768 228.168 420.051 225.785 414.923 225.04C411.034 224.468 407.136 223.917 403.23 223.386C403.282 226.482 403.33 229.574 403.376 232.659C403.574 236.148 404.192 239.602 405.217 242.944C406.456 247.109 407.936 250.306 409.726 252.415C395.65 249.723 381.513 247.438 367.317 245.558M365.889 145.023H331.472C338.356 151.426 345.29 157.939 352.217 164.633C352.877 165.716 353.387 166.884 353.731 168.104C354.476 170.246 354.936 172.477 355.099 174.738C355.168 180.206 355.24 185.674 355.314 191.142C348.431 193.834 341.548 196.499 334.664 199.139C341.645 202.733 348.626 206.447 355.607 210.281C355.676 215.778 355.75 221.269 355.83 226.754C355.728 228.972 355.322 231.167 354.626 233.276C354.307 234.41 353.832 235.495 353.215 236.499C346.116 242.293 338.992 248.018 331.842 253.743C343.75 254.886 355.632 256.343 367.489 258.114C381.691 260.251 395.836 262.822 409.924 265.828C421.666 268.359 433.353 271.216 444.985 274.399C447.007 274.947 449.038 275.513 451.06 276.113C457.002 277.827 462.93 279.598 468.844 281.427C480.701 285.152 492.459 289.209 504.121 293.597C496.784 281.815 489.342 270.659 481.793 260.128C480.715 258.399 479.758 256.598 478.928 254.737V254.66V254.592C477.511 251.77 476.242 248.878 475.125 245.927C473.555 240.408 471.496 235.039 468.973 229.882C475.185 223.788 480.047 213.889 479.918 198.753C479.814 186.96 476.786 176.512 470.875 168.216L470.823 168.156L470.78 168.096C464.786 159.793 456.434 153.468 446.801 149.934H446.749C437.268 146.538 427.252 144.866 417.177 144.998L365.889 145.023Z" fill="white"></path></mask><g mask="url(#mask7_193_1012)"><path d="M504.146 144.998H331.455V293.495H504.146V144.998Z" fill="url(#paint7_linear_193_1012)"></path></g><mask id="mask8_193_1012" style="mask-type:luminance" maskUnits="userSpaceOnUse" x="473" y="246" width="30" height="32"><path d="M476.561 248.412C475.439 249.142 474.529 250.154 473.925 251.345C473.321 252.537 473.043 253.867 473.12 255.2L473.171 260.343C473.282 263.586 474.558 266.683 476.768 269.068C478.991 271.759 481.945 273.755 485.277 274.819C487.17 275.401 489.054 276.001 490.947 276.601C494.225 277.656 496.97 277.458 499.285 275.993C501.599 274.527 502.726 272.145 502.726 268.853V263.317C502.644 259.946 501.374 256.712 499.138 254.18C497.027 251.467 494.065 249.536 490.724 248.695C488.831 248.215 486.929 247.744 485.036 247.281C483.997 247.023 482.932 246.888 481.861 246.878C479.976 246.859 478.127 247.392 476.544 248.412" fill="white"></path></mask><g mask="url(#mask8_193_1012)"><path d="M502.667 246.878H473.121V277.638H502.667V246.878Z" fill="url(#paint8_linear_193_1012)"></path></g><mask id="mask9_193_1012" style="mask-type:luminance" maskUnits="userSpaceOnUse" x="456" y="230" width="64" height="65"><path d="M490.931 276.584C489.038 275.984 487.154 275.384 485.261 274.802C481.937 273.74 478.99 271.75 476.769 269.068C474.585 266.684 473.328 263.602 473.224 260.377L473.172 255.235C473.095 253.901 473.373 252.572 473.977 251.38C474.581 250.188 475.491 249.176 476.614 248.447C477.868 247.669 479.274 247.166 480.738 246.971C482.202 246.776 483.691 246.893 485.106 247.315C486.999 247.778 488.9 248.249 490.793 248.729C494.134 249.57 497.097 251.501 499.208 254.215C501.403 256.756 502.635 259.982 502.692 263.334V268.871C502.692 272.162 501.565 274.527 499.251 276.01C497.925 276.866 496.374 277.31 494.794 277.287C493.473 277.268 492.164 277.042 490.914 276.619M464.628 234.888L464.525 234.956L464.422 235.025C461.779 236.768 459.63 239.16 458.184 241.97C456.737 244.78 456.041 247.914 456.162 251.069C456.162 252.723 456.205 254.378 456.231 256.032C456.308 262.888 459.32 269.745 464.895 276.301L464.998 276.43L465.11 276.55C470.547 282.867 477.525 287.684 485.373 290.537C487.26 291.195 489.144 291.863 491.025 292.543C498.769 295.337 505.652 295.234 511.099 291.789C516.545 288.343 519.358 282.207 519.367 274.21V268.434C519.26 260.101 516.31 252.052 511.004 245.61C505.945 239.067 498.729 234.514 490.63 232.754L484.917 231.554C482.811 231.117 480.666 230.894 478.515 230.885C473.596 230.824 468.768 232.211 464.637 234.87" fill="white"></path></mask><g mask="url(#mask9_193_1012)"><path d="M519.366 230.876H456.075V295.345H519.366V230.876Z" fill="url(#paint9_linear_193_1012)"></path></g><mask id="mask10_193_1012" style="mask-type:luminance" maskUnits="userSpaceOnUse" x="60" y="9" width="432" height="430"><path d="M210.835 296.057L341.031 295.637L275.718 360.689L210.835 296.057ZM276.139 88.3104L341.031 152.951L210.835 153.362L276.139 88.3104ZM245.509 22.23L73.1274 193.936C65.0597 201.973 60.5273 212.873 60.5273 224.238C60.5273 235.604 65.0597 246.503 73.1274 254.54L245.509 426.255C253.577 434.291 264.519 438.806 275.928 438.806C287.338 438.806 298.28 434.291 306.348 426.255L478.73 254.54C486.797 246.503 491.33 235.604 491.33 224.238C491.33 212.873 486.797 201.973 478.73 193.936L306.348 22.23C298.28 14.1935 287.338 9.67871 275.928 9.67871C264.519 9.67871 253.577 14.1935 245.509 22.23Z" fill="white"></path></mask><g mask="url(#mask10_193_1012)"><path d="M495.525 9.67371H56.3242V442.993H495.525V9.67371Z" fill="url(#paint10_linear_193_1012)"></path></g><mask id="mask11_193_1012" style="mask-type:luminance" maskUnits="userSpaceOnUse" x="3" y="-115" width="528" height="679"><path d="M530.113 -114.902H3.54688V563.901H530.113V-114.902Z" fill="white"></path></mask><g mask="url(#mask11_193_1012)"><path d="M469.025 193.936L306.348 31.8978C298.281 23.8614 287.338 19.3466 275.929 19.3466C264.519 19.3466 253.577 23.8614 245.509 31.8978L82.8417 193.936C74.7741 201.973 70.2417 212.873 70.2417 224.238C70.2417 235.604 74.7741 246.504 82.8417 254.54L245.509 416.579C253.577 424.615 264.519 429.13 275.929 429.13C287.338 429.13 298.281 424.615 306.348 416.579L469.025 254.54C477.092 246.504 481.625 235.604 481.625 224.238C481.625 212.873 477.092 201.973 469.025 193.936ZM276.14 88.3105L341.031 152.951L210.835 153.362L276.14 88.3105ZM275.718 360.689L210.835 296.057L341.031 295.637L275.718 360.689Z" fill="#292D70"></path><path d="M461.797 206.055L294.182 39.0886C291.785 36.7006 288.939 34.8062 285.807 33.5138C282.675 32.2214 279.318 31.5562 275.928 31.5562C272.538 31.5562 269.181 32.2214 266.05 33.5138C262.918 34.8062 260.072 36.7006 257.675 39.0886L90.06 206.055C87.6627 208.443 85.761 211.278 84.4635 214.398C83.1661 217.517 82.4983 220.861 82.4983 224.238C82.4983 227.615 83.1661 230.959 84.4635 234.079C85.761 237.199 87.6627 240.033 90.06 242.421L257.675 409.388C260.072 411.776 262.918 413.67 266.05 414.963C269.181 416.255 272.538 416.92 275.928 416.92C279.318 416.92 282.675 416.255 285.807 414.963C288.939 413.67 291.785 411.776 294.182 409.388L461.797 242.421C464.194 240.033 466.096 237.199 467.393 234.079C468.691 230.959 469.358 227.615 469.358 224.238C469.358 220.861 468.691 217.517 467.393 214.398C466.096 211.278 464.194 208.443 461.797 206.055ZM276.139 88.3104L341.031 152.951L210.835 153.362L276.139 88.3104ZM275.718 360.689L210.835 296.057L341.031 295.637L275.718 360.689Z" fill="#F8BE17"></path><path d="M276.518 42.4569L93.4421 224.825L275.348 406.019L458.416 223.642L276.518 42.4569ZM276.14 88.3104L341.031 152.951L210.835 153.362L276.14 88.3104ZM210.835 296.057L341.031 295.637L275.718 360.689L210.835 296.057Z" fill="#FDE465"></path><path d="M276.423 71.0833L122.214 224.731L275.434 377.367L429.653 223.745L276.423 71.0833ZM276.14 88.2762L341.031 152.917L210.835 153.362L276.14 88.2762ZM210.835 296.023L341.031 295.637L275.718 360.689L210.835 296.023Z" fill="#2E2C74"></path><path d="M341.031 152.951L339.199 154.768L276.14 91.9533L217.082 150.791L341.023 150.397V152.968V155.54L210.844 155.934C210.331 155.937 209.829 155.788 209.402 155.505C208.975 155.223 208.641 154.82 208.445 154.349C208.248 153.877 208.197 153.358 208.298 152.857C208.399 152.356 208.647 151.897 209.011 151.537L274.316 86.5109C274.8 86.0294 275.456 85.7589 276.14 85.7589C276.824 85.7589 277.48 86.0294 277.964 86.5109L342.855 151.151C343.215 151.511 343.461 151.968 343.56 152.465C343.66 152.963 343.61 153.479 343.415 153.948C343.221 154.417 342.892 154.819 342.469 155.102C342.047 155.385 341.549 155.538 341.04 155.54L341.031 152.951Z" fill="url(#paint11_linear_193_1012)"></path><path d="M210.835 297.968L212.625 296.151L275.684 358.966L334.802 300.145L210.904 300.539V297.968L212.625 296.151L210.801 297.968V295.397L340.997 294.977C341.509 294.974 342.011 295.123 342.439 295.406C342.866 295.688 343.199 296.09 343.396 296.562C343.592 297.034 343.643 297.553 343.543 298.054C343.442 298.555 343.193 299.014 342.829 299.374L277.525 364.426C277.285 364.665 277 364.856 276.686 364.985C276.373 365.115 276.036 365.182 275.696 365.182C275.357 365.182 275.02 365.115 274.707 364.985C274.393 364.856 274.108 364.665 273.868 364.426L209.011 299.785C208.651 299.426 208.406 298.969 208.306 298.471C208.206 297.974 208.257 297.458 208.451 296.988C208.645 296.519 208.974 296.118 209.397 295.835C209.82 295.551 210.317 295.399 210.826 295.397L210.835 297.968Z" fill="url(#paint12_linear_193_1012)"></path><path d="M430.891 198.17C429.688 199.369 428.155 200.186 426.486 200.517C424.817 200.848 423.087 200.678 421.514 200.029C419.942 199.381 418.598 198.282 417.653 196.873C416.707 195.463 416.202 193.806 416.202 192.111C416.202 190.416 416.707 188.758 417.653 187.349C418.598 185.939 419.942 184.841 421.514 184.192C423.087 183.544 424.817 183.374 426.486 183.705C428.155 184.036 429.688 184.852 430.891 186.051C432.504 187.659 433.41 189.838 433.41 192.111C433.41 194.383 432.504 196.563 430.891 198.17Z" fill="white"></path><path d="M399.375 165.302C398.172 166.499 396.639 167.315 394.97 167.645C393.301 167.974 391.572 167.804 390 167.155C388.428 166.506 387.085 165.408 386.14 163.998C385.195 162.589 384.691 160.932 384.691 159.238C384.691 157.543 385.195 155.886 386.14 154.477C387.085 153.068 388.428 151.969 390 151.32C391.572 150.671 393.301 150.501 394.97 150.831C396.639 151.161 398.172 151.976 399.375 153.174C400.175 153.97 400.81 154.915 401.243 155.956C401.676 156.996 401.899 158.111 401.899 159.238C401.899 160.364 401.676 161.479 401.243 162.52C400.81 163.56 400.175 164.506 399.375 165.302Z" fill="white"></path><path d="M301.349 70.1491C300.146 71.348 298.613 72.1645 296.944 72.4954C295.275 72.8263 293.545 72.6568 291.972 72.0081C290.4 71.3595 289.056 70.261 288.11 68.8515C287.165 67.442 286.66 65.7848 286.66 64.0895C286.66 62.3943 287.165 60.7371 288.11 59.3276C289.056 57.9181 290.4 56.8196 291.972 56.171C293.545 55.5223 295.275 55.3528 296.944 55.6837C298.613 56.0146 300.146 56.8311 301.349 58.03C302.962 59.6373 303.868 61.8169 303.868 64.0895C303.868 66.3622 302.962 68.5418 301.349 70.1491Z" fill="white"></path><path d="M333.941 101.938C332.738 103.137 331.205 103.954 329.536 104.284C327.867 104.615 326.137 104.446 324.564 103.797C322.992 103.149 321.648 102.05 320.702 100.641C319.757 99.231 319.252 97.5738 319.252 95.8786C319.252 94.1834 319.757 92.5262 320.702 91.1167C321.648 89.7072 322.992 88.6086 324.564 87.96C326.137 87.3114 327.867 87.1418 329.536 87.4727C331.205 87.8037 332.738 88.6202 333.941 89.8191C335.554 91.4263 336.46 93.6059 336.46 95.8786C336.46 98.1513 335.554 100.331 333.941 101.938Z" fill="white"></path><path d="M366.378 133.907C365.175 135.105 363.642 135.92 361.973 136.25C360.304 136.58 358.575 136.41 357.003 135.761C355.431 135.112 354.088 134.013 353.143 132.604C352.198 131.195 351.694 129.538 351.694 127.843C351.694 126.148 352.198 124.492 353.143 123.083C354.088 121.673 355.431 120.575 357.003 119.926C358.575 119.277 360.304 119.107 361.973 119.436C363.642 119.766 365.175 120.582 366.378 121.779C367.178 122.575 367.813 123.521 368.246 124.561C368.679 125.602 368.902 126.717 368.902 127.843C368.902 128.97 368.679 130.085 368.246 131.125C367.813 132.166 367.178 133.111 366.378 133.907Z" fill="white"></path><path d="M255.593 386.007C254.39 387.206 252.856 388.022 251.187 388.353C249.518 388.684 247.788 388.514 246.216 387.866C244.643 387.217 243.3 386.119 242.354 384.709C241.408 383.3 240.904 381.642 240.904 379.947C240.904 378.252 241.408 376.595 242.354 375.185C243.3 373.776 244.643 372.677 246.216 372.029C247.788 371.38 249.518 371.21 251.187 371.541C252.856 371.872 254.39 372.689 255.593 373.888C257.206 375.495 258.112 377.675 258.112 379.947C258.112 382.22 257.206 384.399 255.593 386.007Z" fill="white"></path><path d="M224.077 353.138C222.873 354.337 221.34 355.153 219.671 355.484C218.002 355.815 216.272 355.646 214.7 354.997C213.127 354.348 211.783 353.25 210.838 351.84C209.892 350.431 209.388 348.774 209.388 347.079C209.388 345.383 209.892 343.726 210.838 342.317C211.783 340.907 213.127 339.809 214.7 339.16C216.272 338.511 218.002 338.342 219.671 338.673C221.34 339.004 222.873 339.82 224.077 341.019C225.69 342.626 226.596 344.806 226.596 347.079C226.596 349.351 225.69 351.531 224.077 353.138Z" fill="white"></path><path d="M126.05 257.986C124.847 259.185 123.314 260.001 121.645 260.332C119.976 260.663 118.246 260.493 116.674 259.845C115.101 259.196 113.757 258.098 112.812 256.688C111.866 255.279 111.362 253.621 111.362 251.926C111.362 250.231 111.866 248.574 112.812 247.164C113.757 245.755 115.101 244.656 116.674 244.008C118.246 243.359 119.976 243.189 121.645 243.52C123.314 243.851 124.847 244.668 126.05 245.867C127.663 247.474 128.57 249.653 128.57 251.926C128.57 254.199 127.663 256.378 126.05 257.986Z" fill="white"></path><path d="M158.617 289.809C157.414 291.008 155.881 291.824 154.212 292.155C152.543 292.486 150.813 292.317 149.24 291.668C147.668 291.019 146.324 289.921 145.378 288.511C144.433 287.102 143.928 285.445 143.928 283.749C143.928 282.054 144.433 280.397 145.378 278.987C146.324 277.578 147.668 276.479 149.24 275.831C150.813 275.182 152.543 275.013 154.212 275.343C155.881 275.674 157.414 276.491 158.617 277.69C160.23 279.297 161.136 281.477 161.136 283.749C161.136 286.022 160.23 288.202 158.617 289.809Z" fill="white"></path><path d="M191.114 321.743C189.911 322.942 188.378 323.759 186.709 324.09C185.04 324.421 183.31 324.251 181.737 323.602C180.165 322.954 178.821 321.855 177.876 320.446C176.93 319.036 176.425 317.379 176.425 315.684C176.425 313.989 176.93 312.331 177.876 310.922C178.821 309.512 180.165 308.414 181.737 307.765C183.31 307.117 185.04 306.947 186.709 307.278C188.378 307.609 189.911 308.426 191.114 309.624C192.727 311.232 193.633 313.411 193.633 315.684C193.633 317.957 192.727 320.136 191.114 321.743Z" fill="white"></path><path d="M257.107 64.9294C258.311 66.128 259.13 67.6551 259.463 69.3178C259.795 70.9804 259.625 72.7038 258.974 74.2701C258.322 75.8363 257.22 77.175 255.805 78.1169C254.39 79.0588 252.726 79.5615 251.024 79.5615C249.322 79.5615 247.659 79.0588 246.244 78.1169C244.829 77.175 243.726 75.8363 243.075 74.2701C242.424 72.7038 242.253 70.9804 242.586 69.3178C242.918 67.6551 243.738 66.128 244.941 64.9294C246.555 63.3227 248.743 62.42 251.024 62.42C253.306 62.42 255.494 63.3227 257.107 64.9294Z" fill="white"></path><path d="M224.102 96.3242C225.305 97.5227 226.125 99.0499 226.457 100.713C226.789 102.375 226.619 104.099 225.968 105.665C225.317 107.231 224.214 108.57 222.799 109.512C221.384 110.454 219.72 110.956 218.019 110.956C216.317 110.956 214.653 110.454 213.238 109.512C211.823 108.57 210.72 107.231 210.069 105.665C209.418 104.099 209.248 102.375 209.58 100.713C209.912 99.0499 210.732 97.5227 211.936 96.3242C213.549 94.7174 215.737 93.8148 218.019 93.8148C220.3 93.8148 222.488 94.7174 224.102 96.3242Z" fill="white"></path><path d="M128.589 193.971C129.793 195.169 130.612 196.697 130.945 198.359C131.277 200.022 131.107 201.745 130.455 203.312C129.804 204.878 128.702 206.217 127.287 207.158C125.872 208.1 124.208 208.603 122.506 208.603C120.804 208.603 119.141 208.1 117.726 207.158C116.311 206.217 115.208 204.878 114.557 203.312C113.906 201.745 113.735 200.022 114.068 198.359C114.4 196.697 115.22 195.169 116.423 193.971C118.037 192.364 120.225 191.462 122.506 191.462C124.788 191.462 126.976 192.364 128.589 193.971Z" fill="white"></path><path d="M160.535 161.53C161.739 162.729 162.559 164.256 162.891 165.918C163.223 167.581 163.053 169.305 162.402 170.871C161.751 172.437 160.648 173.776 159.233 174.718C157.818 175.66 156.154 176.162 154.452 176.162C152.751 176.162 151.087 175.66 149.672 174.718C148.257 173.776 147.154 172.437 146.503 170.871C145.852 169.305 145.682 167.581 146.014 165.918C146.346 164.256 147.166 162.729 148.369 161.53C149.983 159.923 152.171 159.021 154.452 159.021C156.734 159.021 158.922 159.923 160.535 161.53Z" fill="white"></path><path d="M192.586 129.193C193.79 130.392 194.61 131.919 194.942 133.581C195.274 135.244 195.104 136.967 194.453 138.534C193.801 140.1 192.699 141.439 191.284 142.38C189.869 143.322 188.205 143.825 186.503 143.825C184.801 143.825 183.138 143.322 181.723 142.38C180.308 141.439 179.205 140.1 178.554 138.534C177.903 136.967 177.732 135.244 178.065 133.581C178.397 131.919 179.217 130.392 180.42 129.193C182.034 127.586 184.222 126.684 186.503 126.684C188.785 126.684 190.973 127.586 192.586 129.193Z" fill="white"></path><path d="M437.981 245.069C439.185 246.268 440.004 247.795 440.336 249.458C440.669 251.12 440.498 252.844 439.847 254.41C439.196 255.976 438.093 257.315 436.678 258.257C435.263 259.199 433.6 259.702 431.898 259.702C430.196 259.702 428.533 259.199 427.118 258.257C425.703 257.315 424.6 255.976 423.949 254.41C423.297 252.844 423.127 251.12 423.459 249.458C423.792 247.795 424.611 246.268 425.815 245.069C427.428 243.463 429.617 242.56 431.898 242.56C434.179 242.56 436.368 243.463 437.981 245.069Z" fill="white"></path><path d="M404.985 276.498C406.187 277.697 407.005 279.225 407.337 280.887C407.668 282.549 407.497 284.272 406.845 285.837C406.194 287.403 405.091 288.741 403.676 289.682C402.262 290.624 400.599 291.126 398.897 291.126C397.196 291.126 395.533 290.624 394.118 289.682C392.703 288.741 391.601 287.403 390.949 285.837C390.298 284.272 390.127 282.549 390.458 280.887C390.789 279.225 391.608 277.697 392.81 276.498C393.609 275.701 394.558 275.069 395.602 274.638C396.647 274.207 397.767 273.985 398.897 273.985C400.028 273.985 401.148 274.207 402.192 274.638C403.237 275.069 404.186 275.701 404.985 276.498Z" fill="white"></path><path d="M309.462 374.145C310.666 375.344 311.486 376.871 311.818 378.533C312.15 380.196 311.98 381.919 311.329 383.486C310.678 385.052 309.575 386.391 308.16 387.333C306.745 388.274 305.081 388.777 303.379 388.777C301.678 388.777 300.014 388.274 298.599 387.333C297.184 386.391 296.081 385.052 295.43 383.486C294.779 381.919 294.609 380.196 294.941 378.533C295.273 376.871 296.093 375.344 297.296 374.145C298.91 372.538 301.098 371.636 303.379 371.636C305.661 371.636 307.849 372.538 309.462 374.145Z" fill="white"></path><path d="M341.41 341.705C342.613 342.903 343.433 344.43 343.765 346.093C344.097 347.755 343.927 349.479 343.276 351.045C342.625 352.611 341.522 353.95 340.107 354.892C338.692 355.834 337.028 356.337 335.327 356.337C333.625 356.337 331.961 355.834 330.546 354.892C329.131 353.95 328.028 352.611 327.377 351.045C326.726 349.479 326.556 347.755 326.888 346.093C327.22 344.43 328.04 342.903 329.244 341.705C330.857 340.098 333.045 339.195 335.327 339.195C337.608 339.195 339.796 340.098 341.41 341.705Z" fill="white"></path><path d="M373.468 309.35C374.671 310.549 375.489 312.076 375.82 313.738C376.152 315.401 375.981 317.124 375.329 318.689C374.678 320.255 373.575 321.593 372.16 322.534C370.745 323.475 369.082 323.978 367.381 323.978C365.68 323.978 364.016 323.475 362.602 322.534C361.187 321.593 360.084 320.255 359.433 318.689C358.781 317.124 358.61 315.401 358.941 313.738C359.273 312.076 360.091 310.549 361.294 309.35C362.093 308.553 363.042 307.921 364.086 307.49C365.131 307.058 366.25 306.836 367.381 306.836C368.512 306.836 369.631 307.058 370.676 307.49C371.72 307.921 372.669 308.553 373.468 309.35Z" fill="white"></path><path d="M70.2455 186.154C70.2455 186.154 78.5054 170.47 243.789 173.349C409.072 176.229 416.205 172.998 416.205 172.998L434.996 176.161L442.688 233.507L469.36 271.364C469.36 271.364 264.086 236.224 93.4419 265.099L67.3459 258.114V201.076L70.2455 186.154Z" fill="#1A3564"></path></g><mask id="mask12_193_1012" style="mask-type:luminance" maskUnits="userSpaceOnUse" x="40" y="156" width="107" height="128"><path d="M41.0861 157.742C42.8069 159.953 44.5278 162.13 46.2486 164.273C47.608 165.987 48.8298 169.03 49.802 173.255C50.7132 176.924 51.2238 180.68 51.3249 184.457C51.279 192.051 51.2389 199.642 51.2045 207.23C51.2045 207.795 51.0324 209.132 49.8881 211.901C49.3185 213.393 48.4014 214.73 47.2122 215.8C45.3365 217.246 43.4666 218.712 41.6024 220.197C43.4264 221.054 45.2419 221.911 47.0659 222.769C48.2983 223.449 49.2674 224.52 49.8192 225.811C50.529 227.118 50.9624 228.556 51.0926 230.036C51.0582 237.602 51.0209 245.167 50.9808 252.732C50.8181 256.701 50.2852 260.646 49.389 264.517C48.0812 270.362 46.7562 273.293 45.8786 274.699C44.1234 277.51 42.3739 280.367 40.6301 283.269C59.8859 276.121 79.3884 269.899 99.1375 264.602C97.3823 263.157 95.627 261.691 93.8718 260.206C93.0114 259.46 91.6864 257.634 90.4302 253.135C89.5482 249.903 89.0656 246.575 88.9933 243.227L89.1224 232.839L90.8432 232.505C94.7523 231.808 98.7203 231.492 102.691 231.562C108.301 231.519 110.865 232.153 112.035 232.676C114.329 233.71 116.624 234.733 118.918 235.745C119.142 221.5 119.368 207.258 119.598 193.019C117.269 194.648 114.937 196.308 112.603 197.999C111.433 198.856 108.834 200.202 103.138 201.924C99.2408 203.141 95.2576 204.067 91.2218 204.693L89.501 204.907L89.7505 185.194C95.3259 184.76 100.904 184.343 106.485 183.943C110.063 183.758 113.651 183.921 117.197 184.432C121.018 184.98 123.848 185.743 125.603 186.694L130.172 189.163C135.507 178.038 140.844 167.261 146.184 156.834C111.143 157.051 76.116 157.362 41.1034 157.768" fill="white"></path></mask><g mask="url(#mask12_193_1012)"><path d="M146.158 156.807H40.5862V283.226H146.158V156.807Z" fill="url(#paint13_linear_193_1012)"></path></g><mask id="mask13_193_1012" style="mask-type:luminance" maskUnits="userSpaceOnUse" x="3" y="-115" width="528" height="679"><path d="M530.113 -114.902H3.54688V563.901H530.113V-114.902Z" fill="white"></path></mask><g mask="url(#mask13_193_1012)"><path d="M139.912 160.125C136.029 167.844 132.145 175.747 128.262 183.832C126.016 182.597 122.764 181.68 118.333 181.012C114.425 180.423 110.468 180.213 106.52 180.386C99.5045 180.832 92.4951 181.303 85.4914 181.8C85.3824 190.908 85.2735 200.019 85.1645 209.132L91.1873 208.275C95.5276 207.575 99.8098 206.555 103.999 205.224C109.161 203.621 112.904 202.053 115.184 200.39C115.035 210.069 114.883 219.743 114.728 229.411C112.491 228.382 108.705 227.868 103.663 227.86C99.3897 227.749 95.1157 228.059 90.9034 228.785L84.8805 229.925C84.8232 234.662 84.7658 239.399 84.7085 244.135C84.7768 247.763 85.2882 251.37 86.2314 254.875C87.3413 258.98 88.7093 261.834 90.4301 263.282C76.5432 267.088 62.7768 271.339 49.1308 276.036C50.8516 273.293 52.2627 269.265 53.4328 264.105C54.4065 259.978 54.9828 255.768 55.1536 251.532C55.1995 244.058 55.2454 236.582 55.2913 229.102C55.1791 227.099 54.6269 225.145 53.6737 223.377C52.793 221.433 51.2764 219.843 49.3717 218.869C51.2634 217.237 52.7381 215.181 53.6737 212.869C54.62 210.885 55.2027 208.749 55.3946 206.561L55.5236 184.054C55.4371 180.064 54.912 176.095 53.9577 172.218C52.8133 167.393 51.3765 163.956 49.6557 161.762C79.7067 161.093 109.792 160.559 139.912 160.159M152.396 153.56H32.4906C35.9323 158.131 39.3739 162.568 42.8155 166.87C43.2629 167.436 44.4416 169.313 45.629 174.387C46.4707 177.807 46.9494 181.306 47.0573 184.826C47.0573 192.499 47.0286 200.17 46.9712 207.838C46.7864 208.88 46.4683 209.894 46.0248 210.855C45.7511 211.529 45.3833 212.161 44.9321 212.732C41.2094 215.589 37.4982 218.532 33.7985 221.56C37.4408 223.308 41.0803 224.997 44.717 226.625C44.7686 226.625 45.2676 226.908 45.9387 228.211C46.4058 229.053 46.7231 229.969 46.8766 230.919C46.8766 238.564 46.845 246.212 46.7819 253.863C46.6295 257.586 46.1341 261.287 45.302 264.919C44.0372 270.619 42.9187 272.736 42.6004 273.25C39.0957 278.907 35.611 284.732 32.1465 290.726C37.785 288.475 43.4493 286.303 49.1394 284.212C62.7682 279.207 76.5346 274.673 90.4387 270.61C96.2206 268.896 102.025 267.288 107.853 265.785C104.331 262.928 100.815 260.026 97.3047 257.077C96.995 256.811 95.8679 255.612 94.6633 251.258C93.8503 248.318 93.4024 245.29 93.3297 242.241C93.3297 240.056 93.3813 237.879 93.4157 235.693C96.166 235.338 98.9367 235.164 101.71 235.17H101.839C107.38 235.076 109.152 235.745 109.445 235.873C114.034 237.924 118.603 239.924 123.151 241.873C123.22 237.256 123.295 232.633 123.375 228.005C123.53 218.52 123.682 209.032 123.831 199.542L123.986 190.114C126.696 191.58 129.406 193.011 132.117 194.399C133.528 191.445 134.942 188.52 136.358 185.623C140.236 177.664 144.119 169.881 148.008 162.276C149.5 159.345 150.991 156.437 152.482 153.551M93.9664 188.503C98.1135 188.154 102.264 187.811 106.416 187.474C109.651 187.294 112.895 187.424 116.105 187.86C117.645 188.074 118.875 188.306 119.856 188.537C116.558 190.822 113.268 193.145 109.987 195.505C109.574 195.814 107.767 196.911 102.243 198.556C98.9567 199.482 96.1432 200.185 93.8287 200.622L93.9836 188.503" fill="#1A3564"></path></g><mask id="mask14_193_1012" style="mask-type:luminance" maskUnits="userSpaceOnUse" x="136" y="156" width="121" height="91"><path d="M197.335 156.551C199.055 158.137 200.776 159.714 202.437 161.274C203.383 162.131 204.751 163.99 205.878 167.864C206.8 170.481 207.3 173.226 207.358 175.998C207.29 181.506 207.224 187.017 207.16 192.531C207.014 193.744 206.538 194.894 205.784 195.856C205.129 196.95 204.182 197.84 203.048 198.428L197.283 201.179L202.858 203.424C204.02 203.901 204.996 204.74 205.638 205.816L205.689 205.884C206.41 206.791 206.85 207.887 206.954 209.038C206.954 209.57 206.954 210.11 206.954 210.65C206.984 212.935 206.464 215.195 205.44 217.24V217.309C204.595 219.075 203.298 220.589 201.68 221.697C199.961 222.741 198.004 223.331 195.992 223.411C194.103 223.694 192.172 223.423 190.434 222.631C188.795 221.801 187.483 220.446 186.709 218.783C185.733 216.72 185.264 214.455 185.341 212.175C185.341 211.609 185.341 211.044 185.341 210.461C185.564 209.185 186.059 207.972 186.795 206.904C187.468 205.774 188.434 204.844 189.591 204.213C191.472 203.219 193.354 202.236 195.235 201.265L189.539 199.148C188.457 198.681 187.553 197.882 186.958 196.868C186.24 195.895 185.778 194.757 185.616 193.559C185.691 187.886 185.774 182.209 185.866 176.529C186.04 173.657 186.62 170.824 187.586 168.113C188.67 164.882 189.918 162.602 191.303 161.308C193.024 159.691 194.771 158.079 196.543 156.474C176.737 156.548 156.947 156.651 137.175 156.782C138.896 158.539 140.557 160.262 142.243 161.976C143.594 163.339 144.764 165.765 145.685 169.133C146.562 172.038 147.045 175.048 147.122 178.081C147.018 184.12 146.918 190.16 146.82 196.199C146.622 197.504 146.153 198.753 145.444 199.868C144.798 201.085 143.85 202.117 142.691 202.867C140.78 203.939 138.862 205.027 136.952 206.133C138.793 206.887 140.634 207.624 142.475 208.361C143.655 208.896 144.627 209.799 145.246 210.932C145.966 211.943 146.403 213.126 146.511 214.361C146.511 215.621 146.511 216.889 146.45 218.149C146.321 225.786 148.464 232.068 152.86 236.687C157.257 241.307 163.254 244.161 170.869 245.67C178.277 247.101 186.631 247.187 195.709 246.141C204.278 245.234 212.692 243.217 220.738 240.142C228.412 237.125 234.633 233.208 239.279 228.314C243.754 223.545 246.218 217.246 246.163 210.718C246.163 209.501 246.163 208.275 246.163 207.05C246.404 205.898 246.901 204.815 247.617 203.879C248.261 202.915 249.152 202.14 250.198 201.633L256.04 199.062L250.086 196.799C249.1 196.374 248.256 195.678 247.651 194.794C246.932 193.864 246.438 192.782 246.206 191.631C246.206 186.18 246.234 180.726 246.292 175.27C246.436 172.544 246.987 169.854 247.926 167.29C249.088 163.656 250.508 161.822 251.566 160.922L256.728 156.345C236.922 156.345 217.115 156.391 197.309 156.482" fill="white"></path></mask><g mask="url(#mask14_193_1012)"><path d="M256.746 156.422H136.892V247.229H256.746V156.422Z" fill="url(#paint14_linear_193_1012)"></path></g><mask id="mask15_193_1012" style="mask-type:luminance" maskUnits="userSpaceOnUse" x="3" y="-115" width="528" height="679"><path d="M530.113 -114.902H3.54688V563.901H530.113V-114.902Z" fill="white"></path></mask><g mask="url(#mask15_193_1012)"><path d="M248.134 159.285C246.361 160.853 244.83 163.322 243.72 166.801C242.722 169.557 242.142 172.446 241.999 175.372L241.878 191.931C242.136 193.468 242.768 194.919 243.72 196.156C244.746 197.615 246.187 198.735 247.858 199.37C246.183 200.122 244.739 201.306 243.677 202.799C242.719 204.061 242.071 205.528 241.784 207.084C241.784 208.361 241.784 209.655 241.784 210.898C241.853 216.867 239.62 222.634 235.546 227.011C231.339 231.468 225.772 234.982 218.837 237.716C211.404 240.547 203.627 242.386 195.709 243.184C187.286 244.118 179.663 244.041 172.745 242.635C165.827 241.23 160.484 238.599 156.509 234.467C152.534 230.336 150.59 224.688 150.676 217.643C150.676 216.392 150.719 215.132 150.736 213.881C150.633 212.217 150.08 210.611 149.136 209.235C148.15 207.544 146.641 206.218 144.834 205.455C146.688 204.338 148.221 202.761 149.282 200.879C150.409 198.83 151.003 197.219 151.046 195.908C151.149 189.914 151.249 183.914 151.347 177.909C151.274 174.679 150.764 171.473 149.833 168.378C148.714 164.513 147.337 161.762 145.599 160.013C159.664 159.836 173.732 159.688 187.802 159.568C186.013 161.23 184.541 163.853 183.311 167.564C182.282 170.514 181.668 173.592 181.487 176.709L181.229 193.919C181.402 195.534 181.995 197.076 182.949 198.393C183.941 199.995 185.435 201.227 187.2 201.899C185.399 202.843 183.89 204.26 182.838 205.995C181.864 207.426 181.232 209.059 180.988 210.769V212.561C180.88 215.196 181.402 217.819 182.511 220.214C183.554 222.422 185.32 224.211 187.518 225.288C189.704 226.428 192.491 226.797 195.89 226.488C198.907 226.305 201.833 225.384 204.408 223.805C206.578 222.355 208.329 220.364 209.484 218.029C210.676 215.684 211.287 213.089 211.265 210.461V208.85C211.168 207.275 210.595 205.766 209.622 204.521C208.594 202.879 207.065 201.609 205.26 200.896C207.097 200.009 208.64 198.618 209.708 196.885C210.681 195.572 211.276 194.019 211.429 192.394C211.492 186.908 211.555 181.42 211.618 175.929C211.563 172.946 211.025 169.991 210.026 167.179C208.977 163.63 207.574 161.11 205.828 159.508C219.904 159.411 233.98 159.348 248.056 159.319M265.264 153.594H128.46C131.844 157.182 135.226 160.69 138.604 164.119C139.052 164.573 140.205 166.064 141.358 170.118C142.162 172.815 142.613 175.603 142.7 178.415L142.39 196.688C142.194 197.516 141.863 198.306 141.409 199.027C141.106 199.562 140.726 200.05 140.282 200.476C136.479 202.601 132.676 204.787 128.873 207.033C132.556 208.541 136.238 210.024 139.921 211.481C139.981 211.481 140.489 211.721 141.177 212.818C141.632 213.464 141.94 214.201 142.08 214.978C142.08 216.246 142.037 217.549 142.02 218.792C141.874 227.114 144.231 233.988 149.032 239.036C153.808 243.998 160.441 247.221 168.822 248.806C176.849 250.306 185.832 250.349 195.563 249.201C204.785 248.189 213.841 246.011 222.511 242.721C230.917 239.43 237.749 235.162 242.799 229.865V229.822C247.757 224.685 250.512 217.827 250.482 210.701C250.482 209.535 250.482 208.37 250.482 207.204C250.691 206.439 251.045 205.72 251.524 205.087C251.792 204.673 252.151 204.324 252.573 204.067C256.462 202.353 260.354 200.639 264.249 198.925C260.291 197.393 256.339 195.871 252.393 194.356C252.055 194.127 251.763 193.836 251.532 193.499C251.056 192.876 250.708 192.166 250.508 191.408L250.577 175.244C250.728 172.732 251.244 170.255 252.109 167.89C253.201 164.462 254.475 163.073 254.974 162.636L265.299 153.5M191.665 168.67C192.939 164.907 194.143 163.527 194.599 163.09L196.776 161.076L198.901 163.039C199.357 163.45 200.528 164.822 201.586 168.43V168.49V168.541C202.43 170.958 202.891 173.491 202.954 176.049L202.747 192.659C202.592 193.412 202.265 194.118 201.792 194.725V194.768V194.811C201.521 195.275 201.162 195.683 200.734 196.011L196.277 198.205L191.846 196.542C191.442 196.271 191.106 195.91 190.865 195.488C190.379 194.834 190.041 194.082 189.876 193.285C189.956 187.68 190.036 182.074 190.117 176.469C190.296 173.838 190.831 171.244 191.708 168.756M190.71 207.924C191.001 207.409 191.415 206.973 191.915 206.655L196.217 204.41L200.441 206.124C200.95 206.386 201.369 206.791 201.646 207.29V207.358C201.663 207.379 201.678 207.402 201.689 207.427C202.148 207.992 202.445 208.67 202.549 209.389C202.549 209.929 202.549 210.469 202.549 211.009C202.578 212.95 202.147 214.87 201.293 216.615C201.292 216.637 201.292 216.66 201.293 216.683C201.293 216.683 201.293 216.726 201.293 216.752C200.735 217.961 199.873 219.007 198.789 219.786C197.943 220.276 196.981 220.533 196.002 220.531C194.152 220.686 193.584 220.386 193.369 220.274H193.309H193.248C192.16 219.696 191.3 218.769 190.805 217.643C189.972 215.885 189.571 213.955 189.635 212.012V210.418C189.835 209.556 190.2 208.742 190.71 208.018" fill="#1A3564"></path></g><mask id="mask16_193_1012" style="mask-type:luminance" maskUnits="userSpaceOnUse" x="245" y="156" width="123" height="93"><path d="M246.43 156.431L251.592 160.991C252.96 162.199 254.173 164.351 255.18 167.342C256.096 169.889 256.624 172.558 256.746 175.261C256.746 180.592 256.732 185.923 256.703 191.254C256.703 191.648 256.522 192.574 255.369 194.408C254.7 195.457 253.753 196.302 252.633 196.851L246.877 199.285L252.496 201.659C253.658 202.189 254.642 203.043 255.326 204.119C256.022 205.036 256.477 206.111 256.651 207.247L256.6 223.189C256.456 225.91 255.911 228.596 254.982 231.159C253.631 235.008 252.246 236.756 251.325 237.553C249.496 239.147 247.657 240.747 245.81 242.353C266.087 241.576 286.375 241.724 306.675 242.799C304.834 241.153 302.993 239.519 301.151 237.896C300.231 237.082 298.845 235.325 297.503 231.485C296.563 228.888 296.007 226.168 295.851 223.412C295.851 219.446 295.831 215.478 295.791 211.507C303.638 221.963 311.528 232.617 319.461 243.596C335.613 244.738 351.717 246.495 367.772 248.867C365.931 246.947 364.09 245.047 362.249 243.167C361.431 242.31 359.865 240.313 358.557 236.071C357.598 233.272 357.019 230.357 356.837 227.406C356.751 221.772 356.667 216.138 356.587 210.504C356.74 209.318 357.19 208.189 357.895 207.221C358.506 206.133 359.462 205.277 360.614 204.787L366.181 202.567C364.253 201.585 362.332 200.613 360.416 199.653C359.281 199.026 358.341 198.102 357.697 196.979C356.492 194.94 356.303 193.937 356.295 193.551C356.209 187.894 356.125 182.241 356.045 176.59C356.133 173.737 356.629 170.912 357.516 168.199C358.609 164.368 360.02 162.439 361.018 161.496C362.739 159.894 364.417 158.274 366.112 156.645C346.305 156.548 326.499 156.483 306.692 156.448L311.855 161.085C312.818 161.942 314.221 163.768 315.451 167.59C316.427 170.165 316.982 172.88 317.095 175.63C317.141 179.629 317.178 183.646 317.206 187.68C309.36 177.07 301.556 166.699 293.795 156.431H271.356C263.044 156.431 254.727 156.431 246.404 156.431" fill="white"></path></mask><g mask="url(#mask16_193_1012)"><path d="M367.754 156.414H245.783V248.866H367.754V156.414Z" fill="url(#paint15_linear_193_1012)"></path></g><path d="M357.567 159.628C355.846 161.273 354.349 163.853 353.308 167.487C352.358 170.382 351.833 173.399 351.751 176.444C351.831 182.066 351.911 187.686 351.992 193.302C352.183 194.96 352.774 196.548 353.713 197.93C354.779 199.71 356.322 201.159 358.169 202.113C356.372 202.827 354.861 204.11 353.867 205.764C352.792 207.478 352.216 208.935 352.233 210.17C352.319 215.769 352.399 221.369 352.474 226.968C352.663 230.116 353.276 233.223 354.298 236.207C355.459 239.919 357.025 242.764 358.832 244.59C346.62 243.03 334.385 241.796 322.127 240.887C311.802 226.548 301.555 212.792 291.376 199.293L291.48 223.291C291.623 226.24 292.203 229.151 293.201 231.931C294.414 235.359 295.876 237.93 297.683 239.516C283.378 238.944 269.066 238.844 254.749 239.216C256.547 237.673 258.01 235.136 259.215 231.716C260.207 228.959 260.787 226.071 260.935 223.146C260.935 217.843 260.935 212.535 260.935 207.221C260.935 206.056 260.342 204.65 259.215 202.936C258.139 201.309 256.611 200.029 254.818 199.25C256.615 198.455 258.146 197.164 259.232 195.531C260.171 194.276 260.764 192.799 260.953 191.245C260.953 185.92 260.953 180.595 260.953 175.269C260.822 172.363 260.26 169.492 259.283 166.75C258.113 163.322 256.702 160.853 254.93 159.302C266.975 159.302 279.021 159.302 291.067 159.302C301.159 172.664 311.338 186.171 321.577 200.159L321.344 175.724C321.222 172.743 320.624 169.8 319.572 167.007C318.445 163.476 316.991 161.008 315.21 159.379C329.286 159.442 343.359 159.534 357.43 159.654M374.543 153.585H297.967C301.409 156.648 304.873 159.722 308.361 162.808C308.825 163.228 310.021 164.565 311.157 168.104V168.156C311.153 168.176 311.153 168.196 311.157 168.216C312.01 170.497 312.523 172.891 312.68 175.321C308.017 169.076 303.37 162.89 298.741 156.765C297.941 155.702 297.141 154.648 296.35 153.585H237.842C241.284 156.654 244.711 159.708 248.124 162.748C248.571 163.142 249.75 164.462 250.955 168.01C251.793 170.361 252.283 172.821 252.409 175.312C252.409 180.643 252.389 185.974 252.349 191.305C252.157 192.031 251.83 192.714 251.385 193.319C251.084 193.778 250.706 194.181 250.266 194.511C246.463 196.116 242.652 197.748 238.832 199.405C242.566 200.965 246.294 202.53 250.017 204.101C250.54 204.398 250.977 204.827 251.282 205.344C251.743 205.937 252.071 206.62 252.245 207.35C252.245 212.664 252.225 217.98 252.185 223.3C252.034 225.829 251.518 228.323 250.654 230.705C249.337 234.416 248.158 235.642 247.832 235.933C244.149 239.133 240.466 242.376 236.784 245.661C242.755 245.341 248.729 245.104 254.706 244.95C269.046 244.578 283.372 244.687 297.683 245.275C303.654 245.515 309.626 245.841 315.597 246.252C311.903 242.887 308.217 239.573 304.541 236.31C304.205 236.019 303.026 234.768 301.701 231.022C300.872 228.697 300.354 226.274 300.161 223.814C304.859 230.099 309.568 236.482 314.289 242.961L316.733 246.329C318.531 246.458 320.338 246.587 322.144 246.732C334.414 247.698 346.657 249.015 358.875 250.683C364.812 251.501 370.737 252.395 376.651 253.366C372.957 249.418 369.272 245.552 365.595 241.77C365.328 241.504 363.969 239.961 362.738 235.959C361.847 233.349 361.301 230.635 361.112 227.885L360.854 210.881C361.034 210.107 361.371 209.378 361.843 208.738C362.113 208.233 362.53 207.82 363.039 207.555C366.751 206.098 370.453 204.627 374.147 203.141C370.327 201.147 366.501 199.193 362.669 197.279C362.246 196.945 361.892 196.532 361.628 196.062C361.163 195.366 360.814 194.599 360.596 193.791C360.521 188.111 360.438 182.429 360.346 176.744C360.437 174.095 360.9 171.473 361.723 168.953C362.747 165.319 363.986 163.81 364.476 163.399C367.866 160.176 371.256 156.905 374.646 153.585" fill="#1A3564"></path><mask id="mask17_193_1012" style="mask-type:luminance" maskUnits="userSpaceOnUse" x="357" y="156" width="121" height="119"><path d="M417.959 204.281C414.357 203.887 410.749 203.507 407.135 203.142C407.026 196.096 406.909 189.048 406.783 181.998C410.396 182.215 414.004 182.435 417.607 182.657C421.616 182.906 424.361 183.84 425.789 185.434C427.51 187.354 428.439 190.483 428.508 194.408C428.559 202.67 424.756 204.436 420.411 204.436C419.592 204.431 418.773 204.38 417.959 204.281ZM362.558 161.505C363.943 162.816 365.199 165.139 366.266 168.361C367.229 171.127 367.808 174.011 367.987 176.932C368.073 182.68 368.162 188.434 368.254 194.194C368.254 194.614 368.108 195.608 366.989 197.485C366.373 198.542 365.44 199.381 364.322 199.885L358.635 201.985C360.51 202.99 362.392 204.004 364.279 205.027C365.472 205.734 366.459 206.738 367.144 207.941C367.854 209 368.327 210.198 368.529 211.455C368.615 217.169 368.704 222.903 368.796 228.657C368.717 231.502 368.23 234.322 367.35 237.03C366.077 240.964 364.769 242.618 363.849 243.321C362.05 244.727 360.261 246.124 358.463 247.512C378.613 250.169 398.643 253.752 418.553 258.26C416.729 256.043 414.902 253.846 413.072 251.669C412.152 250.589 410.766 248.301 409.39 243.69C408.44 240.583 407.863 237.375 407.669 234.133L407.566 228.211L414.948 229.368C418.39 229.934 420.592 231.331 422.02 233.919C424.409 238.441 425.639 243.482 425.6 248.592C425.669 252.749 424.739 253.812 424.404 254.043C422.519 255.475 420.644 256.897 418.759 258.329C423.796 259.471 428.818 260.674 433.825 261.937L437.628 262.845C451.016 266.325 464.312 270.236 477.516 274.579C475.652 271.842 473.776 269.148 471.889 266.497C470.197 263.944 468.713 261.262 467.45 258.474C465.748 255.048 464.228 251.535 462.898 247.949C460.781 240.399 457.526 233.212 453.244 226.634C462.528 221.44 467.157 211.781 467.011 198.428C466.916 189.146 464.576 181.115 460.024 174.858C455.369 168.58 448.971 163.796 441.62 161.093C433.784 158.272 425.508 156.856 417.176 156.911C397.226 156.762 377.271 156.645 357.31 156.56C359.03 158.188 360.777 159.825 362.549 161.471" fill="white"></path></mask><g mask="url(#mask17_193_1012)"><path d="M477.499 156.604H357.31V274.614H477.499V156.604Z" fill="url(#paint16_linear_193_1012)"></path></g><path d="M417.245 160.322C425.002 160.328 432.698 161.697 439.977 164.368C446.565 166.814 452.298 171.113 456.479 176.744C460.566 182.332 462.648 189.514 462.743 197.965C462.889 211.455 457.761 220.583 447.419 224.86C452.646 231.825 456.518 239.703 458.837 248.087C460.242 251.864 461.857 255.561 463.672 259.16C465.096 262.214 466.75 265.156 468.62 267.962C457.073 264.46 445.449 261.274 433.747 258.406V258.474C431.751 257.983 429.744 257.503 427.725 257.035C429.205 255.912 429.919 253.443 429.858 249.587C429.898 243.878 428.521 238.249 425.849 233.199C423.698 229.257 419.981 226.865 414.862 226.077C410.973 225.477 407.078 224.906 403.177 224.363L403.332 233.516C403.536 236.964 404.157 240.374 405.182 243.673C406.421 247.795 407.901 250.984 409.699 253.101C395.635 250.204 381.501 247.758 367.299 245.764C369.019 244.393 370.448 241.89 371.601 238.359C372.55 235.417 373.072 232.355 373.149 229.265C373.052 223.489 372.96 217.715 372.874 211.944C372.678 210.224 372.073 208.576 371.11 207.136C370.046 205.301 368.507 203.786 366.653 202.747C368.444 202.023 369.953 200.743 370.955 199.096C371.88 197.751 372.435 196.188 372.564 194.562C372.467 188.757 372.375 182.96 372.289 177.172C372.104 174.004 371.488 170.876 370.456 167.873C369.217 164.093 367.746 161.428 365.956 159.731C383.055 159.891 400.146 160.097 417.228 160.348M402.885 205.987C407.938 206.519 412.98 207.09 418.011 207.701C427.914 208.901 432.861 204.736 432.801 194.845C432.724 189.994 431.493 186.206 429.187 183.609C426.881 181.012 423.01 179.581 417.546 179.324C412.51 179.049 407.471 178.784 402.429 178.526C402.584 187.697 402.736 196.868 402.885 206.039M417.133 153.611H348.671C352.158 156.817 355.649 160.062 359.142 163.348C359.598 163.776 360.803 165.19 362.076 169.022C362.961 171.558 363.5 174.201 363.676 176.881C363.774 182.595 363.863 188.309 363.943 194.022C363.773 194.768 363.464 195.474 363.031 196.105C362.742 196.563 362.372 196.963 361.938 197.288C358.175 198.693 354.407 200.093 350.633 201.488C354.395 203.453 358.158 205.453 361.921 207.487C362.46 207.863 362.9 208.363 363.203 208.944C363.672 209.626 364.013 210.387 364.21 211.19L364.468 228.271C364.386 230.894 363.925 233.492 363.1 235.985C361.869 239.756 360.717 240.862 360.398 241.127C356.813 243.95 353.217 246.747 349.609 249.518C355.557 250.238 361.491 251.044 367.41 251.935C381.619 254.072 395.758 256.683 409.828 259.769C415.696 261.054 421.547 262.423 427.38 263.874L427.854 263.994C429.858 264.5 431.863 265.005 433.877 265.528C436.745 266.265 439.59 267.025 442.412 267.808V267.757C451.211 270.191 459.97 272.816 468.688 275.633C474.596 277.547 480.487 279.547 486.361 281.633C482.644 275.976 478.916 270.479 475.176 265.142C473.688 262.857 472.381 260.458 471.27 257.969C469.666 254.721 468.23 251.394 466.968 248.001C465.049 241.17 462.274 234.607 458.708 228.468C467.209 222.537 471.45 212.484 471.321 199.088C471.227 188.949 468.663 180.104 463.672 173.195C458.576 166.27 451.529 161.008 443.427 158.077H443.375C434.981 155.113 426.124 153.662 417.219 153.791M411.196 185.82L417.71 186.266C420.583 186.472 422.012 187.046 422.433 187.474C422.958 188.057 424.154 189.891 424.257 194.245C424.309 201.813 421.082 201.453 417.95 201.102L411.437 200.45C411.363 195.559 411.282 190.671 411.196 185.786M411.971 232.471L415.042 232.985C417.185 233.345 417.667 233.962 418.2 234.922C420.32 238.937 421.405 243.413 421.358 247.95C421.468 249.167 421.315 250.395 420.91 251.549L418.699 253.263C417.968 252.406 417.228 251.481 416.488 250.598C416.161 250.204 414.982 248.567 413.631 244.016C412.748 241.131 412.205 238.154 412.014 235.145C412.014 234.288 412.014 233.379 411.971 232.496" fill="#1A3564"></path><mask id="mask18_193_1012" style="mask-type:luminance" maskUnits="userSpaceOnUse" x="468" y="244" width="39" height="41"><path d="M473.42 246.69C470.323 248.772 468.774 251.832 468.817 255.834L468.869 260.977C468.869 265.039 470.529 268.973 473.721 272.882C476.707 276.575 480.649 279.384 485.122 281.007C487.003 281.664 488.882 282.335 490.757 283.021C495.154 284.606 498.931 284.504 501.994 282.55C505.057 280.595 506.614 277.278 506.606 272.762C506.606 270.87 506.606 268.971 506.606 267.062C506.432 262.402 504.784 257.917 501.897 254.245C499.011 250.574 495.033 247.906 490.534 246.621C488.649 246.132 486.748 245.652 484.855 245.181C483.45 244.816 482.005 244.629 480.553 244.624C478.004 244.596 475.503 245.314 473.36 246.69" fill="white"></path></mask><g mask="url(#mask18_193_1012)"><path d="M506.606 244.624H468.765V284.607H506.606V244.624Z" fill="url(#paint17_linear_193_1012)"></path></g><path d="M490.586 250.666C493.936 251.588 496.884 253.593 498.966 256.366C501.146 259 502.36 262.295 502.407 265.708V271.348C502.407 274.699 501.28 277.09 498.966 278.547C496.651 280.004 493.924 280.116 490.663 278.967L485.019 277.021C481.682 275.858 478.744 273.778 476.544 271.022C474.368 268.574 473.12 265.445 473.016 262.177L472.965 256.983C472.882 255.648 473.157 254.315 473.761 253.121C474.366 251.926 475.279 250.914 476.406 250.186C478.781 248.678 481.569 248.301 484.872 249.167C486.765 249.655 488.658 250.161 490.551 250.666M490.551 242.576L484.864 241.196C479.417 239.893 474.453 240.647 470.521 243.167H470.461L470.409 243.21C468.523 244.454 466.995 246.166 465.974 248.176C464.952 250.187 464.474 252.427 464.584 254.678C464.584 256.392 464.584 258.063 464.644 259.76C464.696 264.74 466.804 269.788 470.719 274.553L470.771 274.622L470.822 274.682C474.615 279.3 479.558 282.846 485.156 284.967C487.032 285.652 488.916 286.338 490.792 287.041C496.247 289.081 501.117 289.012 504.946 286.595C508.774 284.178 510.771 279.85 510.779 274.185V268.408C510.687 262.479 508.616 256.75 504.894 252.123C501.34 247.403 496.273 244.034 490.534 242.576" fill="#1A3564"></path><mask id="mask19_193_1012" style="mask-type:luminance" maskUnits="userSpaceOnUse" x="188" y="246" width="175" height="44"><path d="M210.491 246.99C204.786 246.99 199.315 249.247 195.281 253.265C191.247 257.284 188.98 262.734 188.98 268.416C188.98 274.099 191.247 279.549 195.281 283.567C199.315 287.586 204.786 289.843 210.491 289.843H341.375C347.08 289.843 352.551 287.586 356.585 283.567C360.619 279.549 362.885 274.099 362.885 268.416C362.885 262.734 360.619 257.284 356.585 253.265C352.551 249.247 347.08 246.99 341.375 246.99H210.491Z" fill="white"></path></mask><g mask="url(#mask19_193_1012)"><path d="M362.878 246.99H188.973V289.843H362.878V246.99Z" fill="url(#paint18_linear_193_1012)"></path></g><mask id="mask20_193_1012" style="mask-type:luminance" maskUnits="userSpaceOnUse" x="198" y="254" width="23" height="27"><path d="M209.751 254.326C207.922 254.3 206.109 254.665 204.434 255.397C202.932 256.084 201.665 257.192 200.786 258.586C199.852 260.164 199.389 261.974 199.452 263.805V265.039C199.403 265.528 199.266 266.004 199.048 266.445C198.855 266.892 198.539 267.276 198.136 267.551C198.541 267.83 198.858 268.22 199.048 268.673C199.265 269.114 199.402 269.59 199.452 270.079V271.313C199.393 273.144 199.855 274.953 200.786 276.533C201.661 277.914 202.915 279.017 204.399 279.713C205.969 280.441 207.684 280.804 209.416 280.775C210.984 280.799 212.51 280.264 213.718 279.267C213.934 279.892 214.359 280.425 214.922 280.775H219.362V272.496C219.389 271.546 219.513 270.601 219.732 269.676C219.888 268.796 220.215 267.954 220.695 267.199H211.403C212.275 268.159 212.751 269.411 212.737 270.705C212.745 271.519 212.62 272.33 212.367 273.104C212.158 273.767 211.771 274.36 211.248 274.819C210.737 275.248 210.084 275.471 209.416 275.444C208.743 275.468 208.085 275.245 207.566 274.819C207.059 274.351 206.683 273.76 206.473 273.104C206.211 272.332 206.086 271.52 206.103 270.705V270.19C206.126 269.696 206.252 269.211 206.473 268.768C206.666 268.271 207.001 267.842 207.437 267.533C207.002 267.232 206.666 266.808 206.473 266.316C206.253 265.872 206.127 265.388 206.103 264.894V264.362C206.091 263.545 206.228 262.731 206.507 261.963C206.767 261.265 207.239 260.665 207.858 260.248C208.636 259.784 209.534 259.558 210.439 259.597H212.048C212.92 259.624 213.786 259.747 214.63 259.966C215.42 260.139 216.168 260.465 216.832 260.925L219.31 254.309L209.751 254.326Z" fill="white"></path></mask><g mask="url(#mask20_193_1012)"><path d="M220.695 254.326H198.136V280.784H220.695V254.326Z" fill="url(#paint19_linear_193_1012)"></path></g><mask id="mask21_193_1012" style="mask-type:luminance" maskUnits="userSpaceOnUse" x="230" y="254" width="24" height="27"><path d="M242.274 264.911L243.608 270.208H240.957L242.274 264.911ZM238.29 254.326C238.577 254.797 238.712 255.345 238.677 255.895C238.634 257.158 238.416 258.41 238.032 259.614L236.311 265.211C236.133 265.677 235.871 266.107 235.537 266.48C235.206 266.879 234.767 267.176 234.272 267.337C234.729 267.924 234.947 268.662 234.883 269.402C234.889 269.691 234.854 269.98 234.78 270.259L233.274 275.487C232.936 276.467 232.539 277.426 232.087 278.359C231.702 279.214 231.223 280.025 230.658 280.776H240.011C239.497 279.895 239.277 278.875 239.383 277.861C239.38 277.063 239.467 276.267 239.641 275.487H244.958C245.127 276.256 245.208 277.041 245.199 277.827C245.306 278.851 245.086 279.883 244.571 280.776H253.924C253.357 280.03 252.883 279.218 252.513 278.359C252.053 277.429 251.656 276.47 251.325 275.487L249.751 270.285C249.632 269.79 249.616 269.277 249.703 268.776C249.79 268.275 249.979 267.797 250.258 267.371C249.763 267.213 249.323 266.915 248.994 266.514C248.66 266.142 248.397 265.712 248.219 265.245L246.533 259.64C246.129 258.431 245.906 257.169 245.87 255.895C245.839 255.353 245.974 254.815 246.258 254.352L238.29 254.326Z" fill="white"></path></mask><g mask="url(#mask21_193_1012)"><path d="M253.907 254.326H230.642V280.784H253.907V254.326Z" fill="url(#paint20_linear_193_1012)"></path></g><mask id="mask22_193_1012" style="mask-type:luminance" maskUnits="userSpaceOnUse" x="263" y="254" width="28" height="27"><path d="M282.446 254.326L277.129 267.182L271.811 254.326H263.853C264.333 255.077 264.658 255.917 264.808 256.795C265.029 257.719 265.155 258.664 265.186 259.614V264.911C265.15 265.405 265.021 265.887 264.808 266.334C264.612 266.822 264.28 267.244 263.853 267.551C264.281 267.865 264.612 268.293 264.808 268.785C265.023 269.231 265.152 269.714 265.186 270.208V275.487C265.154 276.443 265.028 277.393 264.808 278.324C264.658 279.197 264.334 280.031 263.853 280.776H273.145C272.661 280.032 272.333 279.198 272.181 278.324C271.963 277.393 271.839 276.443 271.811 275.487V268.845L274.461 275.487H279.779L282.446 268.845V275.487C282.419 276.444 282.289 277.395 282.059 278.324C281.92 279.199 281.597 280.034 281.112 280.776H290.405C289.913 280.036 289.584 279.2 289.441 278.324C289.227 277.392 289.103 276.443 289.071 275.487V270.208C289.106 269.715 289.231 269.233 289.441 268.785C289.634 268.288 289.969 267.859 290.405 267.551C289.969 267.249 289.634 266.826 289.441 266.334C289.233 265.885 289.108 265.403 289.071 264.911V259.64C289.103 258.69 289.226 257.746 289.441 256.82C289.585 255.939 289.913 255.098 290.405 254.352L282.446 254.326Z" fill="white"></path></mask><g mask="url(#mask22_193_1012)"><path d="M290.404 254.326H263.844V280.784H290.404V254.326Z" fill="url(#paint21_linear_193_1012)"></path></g><mask id="mask23_193_1012" style="mask-type:luminance" maskUnits="userSpaceOnUse" x="303" y="254" width="21" height="27"><path d="M303.38 254.326C303.864 255.076 304.192 255.916 304.344 256.795C304.555 257.729 304.671 258.682 304.688 259.64V264.937C304.655 265.43 304.529 265.912 304.318 266.36C304.119 266.848 303.785 267.27 303.354 267.577C303.785 267.89 304.119 268.318 304.318 268.811C304.531 269.257 304.657 269.74 304.688 270.233V275.513C304.66 276.469 304.536 277.419 304.318 278.35C304.166 279.224 303.839 280.057 303.354 280.801H323.264L320.777 274.202C320.117 274.664 319.367 274.982 318.575 275.136C317.735 275.374 316.867 275.5 315.994 275.513H311.339V270.233H312.672C313.63 270.252 314.582 270.375 315.512 270.602C316.39 270.737 317.229 271.059 317.972 271.545V263.583C317.227 264.068 316.39 264.395 315.512 264.543C314.58 264.761 313.629 264.884 312.672 264.911H311.339V259.64H315.994C316.865 259.666 317.731 259.79 318.575 260.009C319.364 260.185 320.112 260.511 320.777 260.969L323.264 254.352L303.38 254.326Z" fill="white"></path></mask><g mask="url(#mask23_193_1012)"><path d="M323.282 254.326H303.372V280.784H323.282V254.326Z" fill="url(#paint22_linear_193_1012)"></path></g><mask id="mask24_193_1012" style="mask-type:luminance" maskUnits="userSpaceOnUse" x="333" y="254" width="21" height="27"><path d="M343.406 254.326C341.709 254.308 340.021 254.562 338.407 255.08C337.04 255.498 335.816 256.284 334.87 257.352C333.974 258.424 333.506 259.788 333.554 261.183C333.519 262.274 333.753 263.356 334.234 264.337C334.677 265.2 335.282 265.971 336.015 266.608C336.749 267.24 337.544 267.797 338.389 268.271L339.887 269.128C340.268 269.431 340.599 269.793 340.867 270.199C341.154 270.565 341.317 271.012 341.332 271.476C341.683 271.307 342.069 271.224 342.459 271.236C343.049 271.223 343.636 271.334 344.18 271.562C344.627 271.802 345.04 272.059 345.419 272.316C345.777 272.565 346.106 272.852 346.4 273.173C346.63 273.435 346.761 273.768 346.77 274.116C346.783 274.384 346.697 274.647 346.527 274.854C346.357 275.062 346.115 275.199 345.849 275.239C344.981 275.442 344.09 275.531 343.199 275.504H340.885C340.012 275.479 339.146 275.352 338.303 275.127C337.511 274.973 336.761 274.655 336.101 274.193C335.421 276.036 334.956 277.313 334.698 277.973L333.623 280.793H343.233C345.092 280.827 346.944 280.554 348.714 279.987C350.116 279.549 351.363 278.722 352.311 277.604C353.173 276.536 353.625 275.195 353.584 273.825C353.636 272.732 353.402 271.645 352.904 270.671C352.429 269.823 351.77 269.092 350.977 268.528C350.323 268.048 349.144 267.311 347.458 266.291C347.031 266.012 346.666 265.651 346.383 265.228C346.061 264.839 345.872 264.359 345.84 263.857C345.493 264.016 345.113 264.092 344.731 264.08C344.283 264.105 343.835 264.053 343.406 263.925C342.675 263.619 341.979 263.234 341.332 262.777C340.558 262.263 340.162 261.714 340.162 261.157C340.147 260.91 340.209 260.665 340.338 260.453C340.467 260.242 340.658 260.075 340.885 259.974C341.692 259.689 342.551 259.575 343.406 259.64H345.72C346.591 259.667 347.457 259.791 348.301 260.009C349.09 260.185 349.838 260.511 350.504 260.968L352.982 254.352L343.406 254.326Z" fill="white"></path></mask><g mask="url(#mask24_193_1012)"><path d="M353.533 254.327H333.563V280.784H353.533V254.327Z" fill="url(#paint23_linear_193_1012)"></path></g></g><defs><linearGradient id="paint0_linear_193_1012" x1="94.6704" y1="162.476" x2="94.6704" y2="268.188" gradientUnits="userSpaceOnUse"><stop stop-color="#28C1E7"></stop><stop offset="0.5" stop-color="#A5DDE8"></stop><stop offset="1" stop-color="#10BCE9"></stop></linearGradient><linearGradient id="paint1_linear_193_1012" x1="15.9855" y1="220.491" x2="166.289" y2="220.491" gradientUnits="userSpaceOnUse"><stop stop-color="#C6C7C9"></stop><stop offset="0.28" stop-color="#9C9EA1"></stop><stop offset="0.52" stop-color="#76777A"></stop><stop offset="0.8" stop-color="#ADAEB0"></stop><stop offset="1" stop-color="#C1C1C2"></stop></linearGradient><linearGradient id="paint2_linear_193_1012" x1="195.855" y1="158.108" x2="195.855" y2="213.655" gradientUnits="userSpaceOnUse"><stop stop-color="#28C1E7"></stop><stop offset="0.5" stop-color="#A5DDE8"></stop><stop offset="1" stop-color="#10BCE9"></stop></linearGradient><linearGradient id="paint3_linear_193_1012" x1="110.606" y1="200.569" x2="281.86" y2="200.569" gradientUnits="userSpaceOnUse"><stop stop-color="#C6C7C9"></stop><stop offset="0.28" stop-color="#9C9EA1"></stop><stop offset="0.52" stop-color="#76777A"></stop><stop offset="0.8" stop-color="#ADAEB0"></stop><stop offset="1" stop-color="#C1C1C2"></stop></linearGradient><linearGradient id="paint4_linear_193_1012" x1="309.454" y1="161.235" x2="309.454" y2="213.551" gradientUnits="userSpaceOnUse"><stop stop-color="#28C1E7"></stop><stop offset="0.5" stop-color="#A5DDE8"></stop><stop offset="1" stop-color="#10BCE9"></stop></linearGradient><linearGradient id="paint5_linear_193_1012" x1="218.938" y1="204.798" x2="394.426" y2="204.798" gradientUnits="userSpaceOnUse"><stop stop-color="#C6C7C9"></stop><stop offset="0.28" stop-color="#9C9EA1"></stop><stop offset="0.52" stop-color="#76777A"></stop><stop offset="0.8" stop-color="#ADAEB0"></stop><stop offset="1" stop-color="#C1C1C2"></stop></linearGradient><linearGradient id="paint6_linear_193_1012" x1="416.122" y1="165.32" x2="416.122" y2="231.974" gradientUnits="userSpaceOnUse"><stop stop-color="#28C1E7"></stop><stop offset="0.5" stop-color="#A5DDE8"></stop><stop offset="1" stop-color="#10BCE9"></stop></linearGradient><linearGradient id="paint7_linear_193_1012" x1="331.177" y1="219.015" x2="503.868" y2="219.015" gradientUnits="userSpaceOnUse"><stop stop-color="#C6C7C9"></stop><stop offset="0.28" stop-color="#9C9EA1"></stop><stop offset="0.52" stop-color="#76777A"></stop><stop offset="0.8" stop-color="#ADAEB0"></stop><stop offset="1" stop-color="#C1C1C2"></stop></linearGradient><linearGradient id="paint8_linear_193_1012" x1="485.886" y1="250.064" x2="485.886" y2="262.903" gradientUnits="userSpaceOnUse"><stop stop-color="#28C1E7"></stop><stop offset="0.5" stop-color="#A5DDE8"></stop><stop offset="1" stop-color="#10BCE9"></stop></linearGradient><linearGradient id="paint9_linear_193_1012" x1="454.644" y1="264.559" x2="517.85" y2="264.559" gradientUnits="userSpaceOnUse"><stop stop-color="#C6C7C9"></stop><stop offset="0.28" stop-color="#9C9EA1"></stop><stop offset="0.52" stop-color="#76777A"></stop><stop offset="0.8" stop-color="#ADAEB0"></stop><stop offset="1" stop-color="#C1C1C2"></stop></linearGradient><linearGradient id="paint10_linear_193_1012" x1="64.1177" y1="224.046" x2="494.921" y2="224.046" gradientUnits="userSpaceOnUse"><stop stop-color="white"></stop><stop offset="0.25" stop-color="#717275"></stop><stop offset="0.5" stop-color="#CFD0D2"></stop><stop offset="0.75" stop-color="#AEB0B1"></stop><stop offset="1" stop-color="#D3D4D6"></stop></linearGradient><linearGradient id="paint11_linear_193_1012" x1="209.277" y1="119.608" x2="345.496" y2="119.608" gradientUnits="userSpaceOnUse"><stop stop-color="white"></stop><stop offset="0.25" stop-color="#717275"></stop><stop offset="0.5" stop-color="#CFD0D2"></stop><stop offset="0.75" stop-color="#AEB0B1"></stop><stop offset="1" stop-color="#D3D4D6"></stop></linearGradient><linearGradient id="paint12_linear_193_1012" x1="343.622" y1="330.713" x2="207.403" y2="330.713" gradientUnits="userSpaceOnUse"><stop stop-color="white"></stop><stop offset="0.25" stop-color="#717275"></stop><stop offset="0.5" stop-color="#CFD0D2"></stop><stop offset="0.75" stop-color="#AEB0B1"></stop><stop offset="1" stop-color="#D3D4D6"></stop></linearGradient><linearGradient id="paint13_linear_193_1012" x1="91.9243" y1="159.93" x2="91.9243" y2="278.36" gradientUnits="userSpaceOnUse"><stop stop-color="#28C1E7"></stop><stop offset="0.08" stop-color="#2CC2E7"></stop><stop offset="0.15" stop-color="#38C5E7"></stop><stop offset="0.23" stop-color="#4BC9E7"></stop><stop offset="0.3" stop-color="#67CFE8"></stop><stop offset="0.37" stop-color="#8AD7E8"></stop><stop offset="0.42" stop-color="#A5DDE8"></stop><stop offset="0.45" stop-color="#86D6E8"></stop><stop offset="0.48" stop-color="#67CFE8"></stop><stop offset="0.52" stop-color="#4CC9E9"></stop><stop offset="0.56" stop-color="#36C4E9"></stop><stop offset="0.61" stop-color="#25C1E9"></stop><stop offset="0.67" stop-color="#19BEE9"></stop><stop offset="0.76" stop-color="#12BCE9"></stop><stop offset="1" stop-color="#10BCE9"></stop></linearGradient><linearGradient id="paint14_linear_193_1012" x1="195.602" y1="156.996" x2="195.602" y2="215.509" gradientUnits="userSpaceOnUse"><stop stop-color="#28C1E7"></stop><stop offset="0.14" stop-color="#2CC2E7"></stop><stop offset="0.27" stop-color="#38C5E7"></stop><stop offset="0.4" stop-color="#4BC9E7"></stop><stop offset="0.53" stop-color="#67CFE8"></stop><stop offset="0.66" stop-color="#8AD7E8"></stop><stop offset="0.75" stop-color="#A5DDE8"></stop><stop offset="0.76" stop-color="#86D6E8"></stop><stop offset="0.77" stop-color="#67CFE8"></stop><stop offset="0.79" stop-color="#4CC9E9"></stop><stop offset="0.81" stop-color="#36C4E9"></stop><stop offset="0.83" stop-color="#25C1E9"></stop><stop offset="0.86" stop-color="#19BEE9"></stop><stop offset="0.9" stop-color="#12BCE9"></stop><stop offset="1" stop-color="#10BCE9"></stop></linearGradient><linearGradient id="paint15_linear_193_1012" x1="305.886" y1="158.176" x2="305.886" y2="213.311" gradientUnits="userSpaceOnUse"><stop stop-color="#28C1E7"></stop><stop offset="0.14" stop-color="#2CC2E7"></stop><stop offset="0.28" stop-color="#38C5E7"></stop><stop offset="0.41" stop-color="#4BC9E7"></stop><stop offset="0.55" stop-color="#67CFE8"></stop><stop offset="0.68" stop-color="#8AD7E8"></stop><stop offset="0.77" stop-color="#A5DDE8"></stop><stop offset="0.78" stop-color="#86D6E8"></stop><stop offset="0.79" stop-color="#67CFE8"></stop><stop offset="0.81" stop-color="#4CC9E9"></stop><stop offset="0.83" stop-color="#36C4E9"></stop><stop offset="0.85" stop-color="#25C1E9"></stop><stop offset="0.87" stop-color="#19BEE9"></stop><stop offset="0.91" stop-color="#12BCE9"></stop><stop offset="1" stop-color="#10BCE9"></stop></linearGradient><linearGradient id="paint16_linear_193_1012" x1="417.013" y1="166.457" x2="417.013" y2="238.871" gradientUnits="userSpaceOnUse"><stop stop-color="#28C1E7"></stop><stop offset="0.11" stop-color="#2CC2E7"></stop><stop offset="0.22" stop-color="#38C5E7"></stop><stop offset="0.33" stop-color="#4BC9E7"></stop><stop offset="0.43" stop-color="#67CFE8"></stop><stop offset="0.54" stop-color="#8AD7E8"></stop><stop offset="0.61" stop-color="#A5DDE8"></stop><stop offset="0.63" stop-color="#86D6E8"></stop><stop offset="0.65" stop-color="#67CFE8"></stop><stop offset="0.68" stop-color="#4CC9E9"></stop><stop offset="0.7" stop-color="#36C4E9"></stop><stop offset="0.74" stop-color="#25C1E9"></stop><stop offset="0.78" stop-color="#19BEE9"></stop><stop offset="0.84" stop-color="#12BCE9"></stop><stop offset="1" stop-color="#10BCE9"></stop></linearGradient><linearGradient id="paint17_linear_193_1012" x1="485.868" y1="249.497" x2="485.868" y2="266.193" gradientUnits="userSpaceOnUse"><stop stop-color="#28C1E7"></stop><stop offset="0.09" stop-color="#2CC2E7"></stop><stop offset="0.18" stop-color="#38C5E7"></stop><stop offset="0.27" stop-color="#4BC9E7"></stop><stop offset="0.36" stop-color="#67CFE8"></stop><stop offset="0.44" stop-color="#8AD7E8"></stop><stop offset="0.5" stop-color="#A5DDE8"></stop><stop offset="0.52" stop-color="#86D6E8"></stop><stop offset="0.55" stop-color="#67CFE8"></stop><stop offset="0.58" stop-color="#4CC9E9"></stop><stop offset="0.62" stop-color="#36C4E9"></stop><stop offset="0.67" stop-color="#25C1E9"></stop><stop offset="0.72" stop-color="#19BEE9"></stop><stop offset="0.79" stop-color="#12BCE9"></stop><stop offset="1" stop-color="#10BCE9"></stop></linearGradient><linearGradient id="paint18_linear_193_1012" x1="274.894" y1="247.256" x2="274.894" y2="287.95" gradientUnits="userSpaceOnUse"><stop stop-color="#B1B3B6"></stop><stop offset="0.5" stop-color="white"></stop><stop offset="1" stop-color="#B1B3B6"></stop></linearGradient><linearGradient id="paint19_linear_193_1012" x1="210.125" y1="256.071" x2="210.125" y2="280.454" gradientUnits="userSpaceOnUse"><stop stop-color="#00AEE4"></stop><stop offset="1" stop-color="#2B2C74"></stop></linearGradient><linearGradient id="paint20_linear_193_1012" x1="244.093" y1="256.94" x2="244.093" y2="281.504" gradientUnits="userSpaceOnUse"><stop stop-color="#00AEE4"></stop><stop offset="1" stop-color="#2B2C74"></stop></linearGradient><linearGradient id="paint21_linear_193_1012" x1="278.006" y1="256.096" x2="278.006" y2="280.668" gradientUnits="userSpaceOnUse"><stop stop-color="#00AEE4"></stop><stop offset="1" stop-color="#2B2C74"></stop></linearGradient><linearGradient id="paint22_linear_193_1012" x1="314.706" y1="256.64" x2="314.706" y2="281.204" gradientUnits="userSpaceOnUse"><stop stop-color="#00AEE4"></stop><stop offset="1" stop-color="#2B2C74"></stop></linearGradient><linearGradient id="paint23_linear_193_1012" x1="341.767" y1="253.733" x2="341.767" y2="278.203" gradientUnits="userSpaceOnUse"><stop stop-color="#00AEE4"></stop><stop offset="1" stop-color="#2B2C74"></stop></linearGradient><clipPath id="clip0_193_1012"><rect width="532" height="449" fill="white"></rect></clipPath></defs></svg>